<svg version="1.1" xmlns="http://www.w3.org/2000/svg" xmlns:xlink="http://www.w3.org/1999/xlink" x="0px" y="0px"
	 width="18px" height="25px" viewBox="-164.5 181.5 18 25" enable-background="new -164.5 181.5 18 25" xml:space="preserve">
<path fill="#17CFB9" d="M-148,186.5h-15c-0.827,0-1.5,0.673-1.5,1.5v17c0,0.827,0.673,1.5,1.5,1.5h15c0.827,0,1.5-0.673,1.5-1.5v-17
	C-146.5,187.173-147.173,186.5-148,186.5z M-147.5,205c0,0.275-0.224,0.5-0.5,0.5h-15c-0.276,0-0.5-0.225-0.5-0.5v-17
	c0-0.275,0.224-0.5,0.5-0.5h15c0.276,0,0.5,0.225,0.5,0.5V205z M-151,190c-0.276,0-0.5,0.225-0.5,0.5c0,0.276-0.224,0.5-0.5,0.5
	s-0.5-0.224-0.5-0.5c0-0.827,0.673-1.5,1.5-1.5s1.5,0.673,1.5,1.5c0,0.276-0.224,0.5-0.5,0.5s-0.5-0.224-0.5-0.5
	C-150.5,190.225-150.724,190-151,190z M-160,191c0.276,0,0.5,0.224,0.5,0.5v2c0,2.206,1.794,4,4,4s4-1.794,4-4v-2
	c0-0.276,0.224-0.5,0.5-0.5s0.5,0.224,0.5,0.5v2c0,2.757-2.243,5-5,5s-5-2.243-5-5v-2C-160.5,191.224-160.276,191-160,191z
	 M-160,189c0.827,0,1.5,0.673,1.5,1.5c0,0.276-0.224,0.5-0.5,0.5s-0.5-0.224-0.5-0.5c0-0.275-0.224-0.5-0.5-0.5s-0.5,0.225-0.5,0.5
	c0,0.276-0.224,0.5-0.5,0.5s-0.5-0.224-0.5-0.5C-161.5,189.673-160.827,189-160,189z"/>
</svg>
