<svg version="1.1" id="Слой_1" xmlns="http://www.w3.org/2000/svg" xmlns:xlink="http://www.w3.org/1999/xlink" x="0px" y="0px"
	 width="70px" height="34px" viewBox="-139.5 192.5 70 34" enable-background="new -139.5 192.5 70 34" xml:space="preserve">
<path fill="#17CFB9" d="M-130.5,199.5h-2v-4c0-1.657,1.343-3,3-3h50c1.657,0,3,1.343,3,3v4h-2v-3.846l-6.666,3.846h-4.001l8.667-5
	h-47.998l8.667,5h-4.001l-6.666-3.846v3.846H-130.5z M-78.5,223.346l-6.666-3.846h-4.002l8.667,5h-47.998l8.667-5h-4.002
	l-6.666,3.846V219.5h-2v4c0,1.657,1.343,3,3,3h50c1.657,0,3-1.343,3-3v-4h-2V223.346z M-69.5,203.5v12c0,1.104-0.896,2-2,2h-66
	c-1.104,0-2-0.896-2-2v-12c0-1.104,0.896-2,2-2h66C-70.396,201.5-69.5,202.396-69.5,203.5z M-71.5,203.5h-66v12h66V203.5z
	 M-129.5,211.5c1.104,0,2-0.896,2-2s-0.896-2-2-2s-2,0.896-2,2S-130.604,211.5-129.5,211.5z M-119.5,211.5c1.104,0,2-0.896,2-2
	s-0.896-2-2-2s-2,0.896-2,2S-120.604,211.5-119.5,211.5z M-109.5,211.5c1.104,0,2-0.896,2-2s-0.896-2-2-2s-2,0.896-2,2
	S-110.604,211.5-109.5,211.5z M-99.5,211.5c1.104,0,2-0.896,2-2s-0.896-2-2-2s-2,0.896-2,2S-100.604,211.5-99.5,211.5z M-89.5,211.5
	c1.104,0,2-0.896,2-2s-0.896-2-2-2s-2,0.896-2,2S-90.604,211.5-89.5,211.5z M-79.5,211.5c1.104,0,2-0.896,2-2s-0.896-2-2-2
	s-2,0.896-2,2S-80.604,211.5-79.5,211.5z"/>
</svg>
