<svg version="1.1" xmlns="http://www.w3.org/2000/svg" xmlns:xlink="http://www.w3.org/1999/xlink" x="0px" y="0px"
	 width="25px" height="18px" viewBox="-164.5 181.5 25 18" enable-background="new -164.5 181.5 25 18" xml:space="preserve">
<path fill="#17CFB9" d="M-141.516,181.5h-20.969c-1.111,0-2.016,0.916-2.016,2.041v13.918c0,1.125,0.905,2.041,2.016,2.041h20.969
	c1.112,0,2.016-0.916,2.016-2.041v-13.918C-139.5,182.416-140.404,181.5-141.516,181.5z M-141.516,182.5
	c0.269,0,0.509,0.111,0.691,0.286l-10.026,8.852c-0.604,0.535-1.692,0.534-2.298,0.001l-10.026-8.853
	c0.182-0.175,0.422-0.286,0.69-0.286H-141.516z M-141.516,198.5h-20.969c-0.56,0-1.016-0.467-1.016-1.041v-13.625l9.689,8.555
	c0.486,0.429,1.129,0.664,1.811,0.664c0.683,0,1.326-0.236,1.812-0.666l9.688-8.553v13.625
	C-140.5,198.033-140.956,198.5-141.516,198.5z"/>
</svg>
