<svg xmlns="http://www.w3.org/2000/svg" xmlns:xlink="http://www.w3.org/1999/xlink" width="140" height="73" viewBox="0 0 140 73"><defs><path id="mwoaa" d="M141.176 3767.856h-8.69l4.345 18.053 4.345 3.258z"/><path id="mwoab" d="M128.141 3767.856l4.345 14.794 4.345 3.259v-18.053z"/><path id="mwoac" d="M123.797 3767.856v21.312l8.69-6.518v-14.794z"/><path id="mwoad" d="M160.872 3745.574c0-1.201-.4-2.31-1.077-3.2a5.007 5.007 0 0 1-.854-4.292 5.274 5.274 0 0 0-.23-3.37 5.271 5.271 0 0 0-2.22-2.545 5.01 5.01 0 0 1-2.431-3.64 5.269 5.269 0 0 0-1.502-3.024 5.27 5.27 0 0 0-3.025-1.502 5.006 5.006 0 0 1-3.639-2.432 5.272 5.272 0 0 0-2.545-2.22 5.269 5.269 0 0 0-3.37-.23 5.009 5.009 0 0 1-4.291-.853c-.891-.677-2-1.078-3.202-1.078-1.201 0-2.31.401-3.2 1.078a5.01 5.01 0 0 1-4.293.854 5.27 5.27 0 0 0-3.37.23 5.268 5.268 0 0 0-2.545 2.22 5.007 5.007 0 0 1-3.638 2.43 5.274 5.274 0 0 0-3.026 1.502 5.274 5.274 0 0 0-1.502 3.026 5.007 5.007 0 0 1-2.43 3.639 5.265 5.265 0 0 0-2.221 2.544 5.27 5.27 0 0 0-.23 3.37 5.01 5.01 0 0 1-.853 4.292c-.677.89-1.078 2-1.078 3.201 0 1.202.401 2.311 1.078 3.201a5.01 5.01 0 0 1 .853 4.293 5.269 5.269 0 0 0 .23 3.37 5.271 5.271 0 0 0 2.22 2.545 5.005 5.005 0 0 1 2.431 3.638 5.275 5.275 0 0 0 1.502 3.026c.85.85 1.917 1.35 3.026 1.501a5.01 5.01 0 0 1 3.638 2.431 5.266 5.266 0 0 0 2.545 2.22c1.11.46 2.289.515 3.37.23a5.008 5.008 0 0 1 4.292.854c.89.676 2 1.077 3.201 1.077 1.202 0 2.311-.4 3.201-1.077a5.008 5.008 0 0 1 4.292-.854c1.082.285 2.26.23 3.37-.23a5.27 5.27 0 0 0 2.545-2.22 5.008 5.008 0 0 1 3.639-2.431 5.275 5.275 0 0 0 3.025-1.501 5.274 5.274 0 0 0 1.502-3.026 5.008 5.008 0 0 1 2.431-3.638 5.275 5.275 0 0 0 2.22-2.546c.46-1.11.514-2.288.23-3.37a5.01 5.01 0 0 1 .854-4.292 5.27 5.27 0 0 0 1.077-3.2z"/><path id="mwoae" d="M132.486 3768.168c-12.458 0-22.593-10.136-22.593-22.594 0-12.457 10.135-22.593 22.593-22.593s22.593 10.136 22.593 22.593c0 12.458-10.135 22.594-22.593 22.594z"/><path id="mwoaf" d="M132.486 3727.326l13.505 13.904h4.22c-1.955-7.972-9.16-13.904-17.725-13.904z"/><path id="mwoag" d="M132.486 3727.326c-8.565 0-15.77 5.932-17.724 13.904h31.229c-1.49-7.972-6.979-13.904-13.505-13.904z"/><path id="mwoah" d="M132.486 3763.823c8.565 0 15.77-5.932 17.724-13.904h-4.22z"/><path id="mwoai" d="M145.99 3749.92h-31.228c1.954 7.97 9.159 13.903 17.724 13.903 6.526 0 12.015-5.932 13.504-13.904z"/><path id="mwoaj" d="M129.227 3745.574a1.086 1.086 0 1 1-2.171.001 1.086 1.086 0 0 1 2.171 0z"/><path id="mwoak" d="M133.572 3745.574a1.086 1.086 0 1 1-2.172 0 1.086 1.086 0 0 1 2.172 0z"/><path id="mwoal" d="M137.917 3745.574a1.086 1.086 0 1 1-2.172 0 1.086 1.086 0 0 1 2.172 0z"/><path id="mwoam" d="M180.766 3721.378h62.982v44.987h-62.982z"/><path id="mwoan" d="M203.26 3774.238v14.62l4.498-4.498 4.499 4.498v-14.62"/><path id="mwoao" d="M205.509 3784.36l1.124 1.124 1.125-1.124 2.25 2.249v-12.371h-6.749v12.371z"/><path id="mwoap" d="M176.267 3725.876h62.982v44.988h-62.982z"/><path id="mwoaq" d="M196.511 3766.365h-8.997a6.748 6.748 0 0 0-6.748-6.748v-22.494a6.748 6.748 0 0 0 6.748-6.748h40.488a6.748 6.748 0 0 0 6.748 6.748v22.494a6.748 6.748 0 0 0-6.748 6.748h-8.997"/><path id="mwoar" d="M219.005 3764.115c0 6.212-5.036 11.247-11.247 11.247-6.212 0-11.247-5.035-11.247-11.247 0-6.211 5.035-11.246 11.247-11.246 6.211 0 11.247 5.035 11.247 11.246z"/><path id="mwoas" d="M214.506 3764.115a6.748 6.748 0 1 1-13.497 0 6.748 6.748 0 0 1 13.497 0z"/><path id="mwoat" d="M192.012 3734.874h31.491v4.499h-31.49z"/><path id="mwoau" d="M184.14 3742.747h8.997v2.249h-8.997z"/><path id="mwoav" d="M184.14 3747.245h8.997v2.25h-8.997z"/><path id="mwoaw" d="M195.386 3747.245h35.99v2.25h-35.99z"/><path id="mwoax" d="M195.386 3742.747h35.99v2.249h-35.99z"/></defs><g><g transform="translate(-104 -3717)"><g><use fill="#ff6523" xlink:href="#mwoaa"/></g><g><use fill="#ff852b" xlink:href="#mwoab"/></g><g><use fill="#ffa433" xlink:href="#mwoac"/></g><g><use fill="#ff451b" xlink:href="#mwoad"/></g><g><use fill="#fff" xlink:href="#mwoae"/></g><g><use fill="#ff6523" xlink:href="#mwoaf"/></g><g><use fill="#ff852b" xlink:href="#mwoag"/></g><g><use fill="#ff6523" xlink:href="#mwoah"/></g><g><use fill="#ff852b" xlink:href="#mwoai"/></g><g><g><use fill="#ffa433" xlink:href="#mwoaj"/></g><g><use fill="#ffa433" xlink:href="#mwoak"/></g><g><use fill="#ffa433" xlink:href="#mwoal"/></g></g></g><g transform="translate(-104 -3717)"><g><use fill="#5789d6" xlink:href="#mwoam"/></g><g><use fill="#ca5057" xlink:href="#mwoan"/></g><g><use fill="#dc6068" xlink:href="#mwoao"/></g><g><use fill="#699ce6" xlink:href="#mwoap"/></g><g><use fill="#d9d7d8" xlink:href="#mwoaq"/></g><g><use fill="#eebc5a" xlink:href="#mwoar"/></g><g><use fill="#f8cf6a" xlink:href="#mwoas"/></g><g><g><use fill="#efedee" xlink:href="#mwoat"/></g><g><use fill="#efedee" xlink:href="#mwoau"/></g><g><use fill="#efedee" xlink:href="#mwoav"/></g><g><use fill="#efedee" xlink:href="#mwoaw"/></g><g><use fill="#efedee" xlink:href="#mwoax"/></g></g></g></g></svg>