<svg xmlns="http://www.w3.org/2000/svg" xmlns:xlink="http://www.w3.org/1999/xlink" width="18" height="18" viewBox="0 0 18 18"><defs><path id="u90ca" d="M395.472 343.992h-15.756v-8.558h3.478l-2.522 4.316 2.503-.324.939 2.343 3.627-5.62 3.628 5.62.94-2.343 2.502.324-2.522-4.316h3.183zm-16.476-13.513h4.198a10.554 10.554 0 0 1-.627-.277c-.988-.476-3.054-1.476-1.898-2.808.258-.297.65-.386 1.054-.386.336 0 .68.062.958.117.64.126 1.263.326 1.851.608a8.021 8.021 0 0 1 3.073 2.6c.018.025.032.05.045.076a.6.6 0 0 1 .046-.077 8.024 8.024 0 0 1 3.073-2.599 7.735 7.735 0 0 1 1.851-.608c.279-.055.622-.117.958-.117.403 0 .796.09 1.054.386 1.156 1.332-.91 2.332-1.898 2.808-.206.1-.415.191-.627.277h4.084v4.401h-17.195zm10.295-.373a10.98 10.98 0 0 0 1.987-.48 9.836 9.836 0 0 0 1.405-.62c.22-.116.434-.245.645-.376.164-.101.84-.472.3-.524a2.354 2.354 0 0 0-.225-.01c-.85 0-1.816.425-2.524.805a6.527 6.527 0 0 0-1.588 1.205zm-5.269-.48c.653.223 1.314.384 1.988.48a6.52 6.52 0 0 0-1.588-1.205c-.708-.38-1.674-.805-2.524-.805a2.4 2.4 0 0 0-.225.01c-.54.052.137.423.3.524.212.131.424.26.645.376.454.24.919.455 1.404.62z"/><mask id="u90cc" width="2" height="2" x="-1" y="-1"><path fill="#fff" d="M379 327h18v17h-18z"/><use xlink:href="#u90ca"/></mask><filter id="u90cb" width="38" height="38" x="369" y="317" filterUnits="userSpaceOnUse"><feOffset dy="1" in="SourceGraphic" result="FeOffset1032Out"/><feGaussianBlur in="FeOffset1032Out" result="FeGaussianBlur1033Out" stdDeviation="0 0"/></filter></defs><g><g transform="translate(-379 -327)"><g filter="url(#u90cb)"><use fill="none" stroke-opacity=".3" stroke-width="0" mask="url(&quot;#u90cc&quot;)" xlink:href="#u90ca"/><use fill="#020202" fill-opacity=".3" xlink:href="#u90ca"/></g><use fill="#fff" xlink:href="#u90ca"/></g></g></svg>