<svg version="1.1" xmlns="http://www.w3.org/2000/svg" xmlns:xlink="http://www.w3.org/1999/xlink" x="0px" y="0px"
	 width="70px" height="23px" viewBox="-164.5 181.5 70 23" enable-background="new -164.5 181.5 70 23" xml:space="preserve">
<path fill="#17CFB9" d="M-112.5,189.5c0,1.104-0.896,2-2,2s-2-0.896-2-2s0.896-2,2-2S-112.5,188.396-112.5,189.5z M-114.5,195.5h-48
	v-12h52.129c0.732-0.812,1.622-1.493,2.629-2H-162.5c-1.104,0-2,0.896-2,2v12c0,1.104,0.896,2,2,2h48V195.5z M-156.5,189.5
	c0,1.104,0.896,2,2,2s2-0.896,2-2s-0.896-2-2-2S-156.5,188.396-156.5,189.5z M-146.5,189.5c0,1.104,0.896,2,2,2s2-0.896,2-2
	s-0.896-2-2-2S-146.5,188.396-146.5,189.5z M-136.5,189.5c0,1.104,0.896,2,2,2s2-0.896,2-2s-0.896-2-2-2S-136.5,188.396-136.5,189.5
	z M-126.5,189.5c0,1.104,0.896,2,2,2s2-0.896,2-2s-0.896-2-2-2S-126.5,188.396-126.5,189.5z M-95.514,193.5H-96.5v-4.564
	c0-3.548-3.151-6.436-6.999-6.436c-3.85,0-7.001,2.887-7.001,6.436v4.564c0,0-0.43,0-0.987,0c-0.559,0-1.013,0.602-1.013,1.346
	v8.305c0,0.744,0.618,1.35,1.373,1.35h15.254c0.76,0,1.373-0.605,1.373-1.35v-8.305C-94.502,194.102-94.952,193.5-95.514,193.5z
	 M-103.5,200.5c-1.104,0-2-0.898-2-2.002s0.896-1.998,2-1.998c1.104,0,2,0.893,2,1.998C-101.5,199.602-102.395,200.5-103.5,200.5z
	 M-108.5,193.5v-4.564c0-2.309,2.415-4.436,5.001-4.436c2.584,0,4.999,2.126,4.999,4.436v4.564H-108.5z"/>
</svg>
