<svg xmlns="http://www.w3.org/2000/svg" xmlns:xlink="http://www.w3.org/1999/xlink" width="85" height="92" viewBox="0 0 85 92"><defs><path id="842qa" d="M941.466 2107.096v-40.542h84.462v40.542z"/><path id="842qb" d="M941.466 2157.773v-40.542h84.462v40.542z"/><path id="842qd" d="M975.944 2095.033l2.65-15.542h4.227l-2.65 15.542z"/><path id="842qe" d="M995.534 2079.878c-.833-.327-2.144-.655-3.781-.655-4.198 0-7.146 2.114-7.146 5.121-.03 2.233 2.114 3.484 3.722 4.228 1.638.774 2.203 1.25 2.203 1.935 0 1.042-1.31 1.519-2.53 1.519-1.698 0-2.59-.239-3.99-.804l-.595-.268-.596 3.483c.983.447 2.829.804 4.734.834 4.466 0 7.354-2.084 7.384-5.3.03-1.756-1.102-3.126-3.543-4.227-1.489-.715-2.382-1.191-2.382-1.936 0-.655.774-1.34 2.411-1.34 1.4-.03 2.382.268 3.156.596l.387.179.566-3.365"/><path id="842qf" d="M1001.191 2089.525c.357-.894 1.697-4.347 1.697-4.347-.03.03.357-.893.566-1.489l.298 1.34s.803 3.722.982 4.496zm5.21-10.004h-3.275c-1.012 0-1.786.268-2.233 1.28l-6.282 14.232h4.436s.715-1.906.894-2.323h5.418c.12.536.506 2.323.506 2.323h3.93l-3.394-15.512"/><path id="842qg" d="M972.4 2079.491l-4.168 10.6-.446-2.144c-.745-2.471-3.156-5.18-5.836-6.52l3.781 13.606h4.496l6.67-15.542H972.4"/><path id="842qh" d="M964.392 2079.491h-6.818l-.06.328c5.33 1.28 8.843 4.406 10.301 8.128l-1.488-7.146c-.268-.982-1.012-1.28-1.935-1.31"/><clipPath id="842qc"><use fill="#fff" xlink:href="#842qa"/></clipPath><clipPath id="842qi"><use fill="#fff" xlink:href="#842qb"/></clipPath></defs><g><g transform="translate(-941 -2066)"><g><use fill="#fff" xlink:href="#842qa"/><use fill="#fff" fill-opacity="0" stroke="#bce0fd" stroke-miterlimit="50" stroke-width="2" clip-path="url(&quot;#842qc&quot;)" xlink:href="#842qa"/></g><g><g><use fill="#0e0e0e" xlink:href="#842qd"/></g><g><use fill="#0e0e0e" xlink:href="#842qe"/></g><g><use fill="#0e0e0e" xlink:href="#842qf"/></g><g><use fill="#0e0e0e" xlink:href="#842qg"/></g><g><use fill="#0e0e0e" xlink:href="#842qh"/></g></g></g><g transform="translate(-941 -2066)"><g><use fill="#fff" xlink:href="#842qb"/><use fill="#fff" fill-opacity="0" stroke="#bce0fd" stroke-miterlimit="50" stroke-width="2" clip-path="url(&quot;#842qi&quot;)" xlink:href="#842qb"/></g></g><g transform="translate(-941 -2066)"><g><text fill="#0e0e0e" style="line-height:19px;font-kerning:normal" dominant-baseline="text-before-edge" font-family="'Font Awesome 5 Brands','FontAwesome5BrandsRegular'" font-size="30" font-style="none" font-weight="400" transform="translate(965 2120)"><tspan></tspan></text></g></g></g></svg>