<?xml version="1.0" encoding="utf-8"?>
<!-- Generator: Adobe Illustrator 16.0.0, SVG Export Plug-In . SVG Version: 6.00 Build 0)  -->
<!DOCTYPE svg PUBLIC "-//W3C//DTD SVG 1.1//EN" "http://www.w3.org/Graphics/SVG/1.1/DTD/svg11.dtd">
<svg version="1.1" id="Слой_1" xmlns="http://www.w3.org/2000/svg" xmlns:xlink="http://www.w3.org/1999/xlink" x="0px" y="0px"
	 width="33px" height="33px" viewBox="-164.5 181.5 33 33" enable-background="new -164.5 181.5 33 33" xml:space="preserve">
<path fill-rule="evenodd" clip-rule="evenodd" fill="#15E6CD" d="M-148,181.5c-9.113,0-16.5,7.387-16.5,16.5
	c0,9.112,7.387,16.5,16.5,16.5c9.112,0,16.5-7.388,16.5-16.5C-131.5,188.887-138.888,181.5-148,181.5z M-148,213.5
	c-8.561,0-15.5-6.939-15.5-15.5s6.939-15.5,15.5-15.5c8.56,0,15.5,6.939,15.5,15.5S-139.44,213.5-148,213.5z M-146.517,203.282
	c-1.192,0-2.314-0.645-2.698-1.376c0,0-0.642,2.543-0.776,3.034c-0.478,1.735-1.885,3.472-1.995,3.614
	c-0.076,0.099-0.245,0.068-0.262-0.063c-0.03-0.222-0.389-2.411,0.033-4.196c0.211-0.896,1.42-6.018,1.42-6.018
	s-0.352-0.705-0.352-1.748c0-1.637,0.949-2.857,2.13-2.857c1.004,0,1.489,0.754,1.489,1.657c0,1.01-0.643,2.52-0.974,3.919
	c-0.277,1.172,0.586,2.127,1.742,2.127c2.093,0,3.501-2.688,3.501-5.871c0-2.42-1.629-4.232-4.594-4.232
	c-3.349,0-5.438,2.498-5.438,5.289c0,0.962,0.284,1.641,0.729,2.166c0.204,0.24,0.233,0.338,0.159,0.615
	c-0.054,0.203-0.174,0.691-0.225,0.886c-0.074,0.28-0.3,0.38-0.553,0.276c-1.542-0.629-2.261-2.319-2.261-4.219
	c0-3.137,2.646-6.898,7.893-6.898c4.216,0,6.991,3.051,6.991,6.326C-140.558,200.046-142.967,203.282-146.517,203.282z"/>
</svg>
