<svg version="1.1" xmlns="http://www.w3.org/2000/svg" xmlns:xlink="http://www.w3.org/1999/xlink" x="0px" y="0px"
	 width="75px" height="43px" viewBox="-164.5 181.5 75 43" enable-background="new -164.5 181.5 75 43" xml:space="preserve">
<path fill="#17CFB9" d="M-91.587,182.376c-0.628-0.573-1.437-0.876-2.323-0.876c-0.194,0-0.392,0.015-0.592,0.044l-42.338,6.166
	c-2.16,0.315-4.024,2.335-4.158,4.507l-1.733,28.587c-0.069,1.12,0.315,2.123,1.079,2.821c0.628,0.573,1.438,0.875,2.326,0.875
	c0.193,0,0.39-0.014,0.59-0.043l42.338-6.167c2.16-0.313,4.025-2.337,4.157-4.506l1.733-28.588
	C-90.439,184.077-90.823,183.074-91.587,182.376z M-136.552,189.689l42.339-6.167c0.103-0.015,0.205-0.022,0.303-0.022
	c0.279,0,0.514,0.082,0.725,0.202l-21.416,21.008c-0.535,0.525-1.272,0.88-2.075,0.997c-1.065,0.155-2.12-0.105-2.898-0.718
	l-18.487-14.508C-137.632,190.07-137.104,189.77-136.552,189.689z M-94.237,213.662c-0.075,1.232-1.219,2.471-2.449,2.648
	l-42.338,6.167c-0.103,0.016-0.205,0.022-0.302,0.022c-0.393,0-0.722-0.118-0.977-0.351c-0.397-0.363-0.454-0.865-0.432-1.225
	l1.733-28.585c0.001-0.016,0.007-0.032,0.008-0.048l18.185,14.271c0.983,0.772,2.236,1.188,3.535,1.188
	c0.293,0,0.59-0.021,0.886-0.064c1.221-0.178,2.353-0.728,3.188-1.549l20.646-20.252L-94.237,213.662z M-145.284,195.13
	c0.08,0.547-0.299,1.055-0.846,1.134l-10.708,1.561c-0.049,0.008-0.097,0.011-0.146,0.011c-0.488,0-0.916-0.358-0.988-0.855
	c-0.08-0.547,0.299-1.055,0.846-1.134l10.708-1.561C-145.875,194.196-145.364,194.584-145.284,195.13z M-145.833,206.248
	c0.08,0.547-0.299,1.055-0.846,1.134l-16.677,2.429c-0.049,0.008-0.097,0.011-0.146,0.011c-0.488,0-0.916-0.358-0.988-0.855
	c-0.08-0.547,0.299-1.055,0.846-1.134l16.677-2.429C-146.429,205.313-145.914,205.702-145.833,206.248z M-147.205,216.363
	c0.08,0.547-0.299,1.055-0.846,1.134l-8.13,1.185c-0.049,0.008-0.097,0.011-0.146,0.011c-0.488,0-0.916-0.358-0.988-0.855
	c-0.08-0.547,0.299-1.055,0.846-1.134l8.13-1.185C-147.8,215.428-147.285,215.816-147.205,216.363z"/>
</svg>
