<svg xmlns="http://www.w3.org/2000/svg" xmlns:xlink="http://www.w3.org/1999/xlink" width="17" height="17" viewBox="0 0 17 17"><defs><path id="xwy9a" d="M952.5 663c-4.687 0-8.5-3.813-8.5-8.5 0-4.688 3.813-8.5 8.5-8.5 4.687 0 8.5 3.813 8.5 8.5 0 4.687-3.812 8.5-8.5 8.5zm0-16.006c-4.139 0-7.505 3.367-7.505 7.506 0 4.138 3.366 7.505 7.505 7.505 4.139 0 7.506-3.367 7.506-7.505 0-4.139-3.367-7.506-7.506-7.506zm-1.958 5.634c.1-.259.24-.482.421-.672.181-.19.4-.337.655-.443a2.2 2.2 0 0 1 .856-.16c.408 0 .748.057 1.02.169.273.112.493.251.66.417a1.524 1.524 0 0 1 .464 1.076c0 .276-.036.503-.107.68a1.693 1.693 0 0 1-.62.78c-.13.089-.251.178-.366.267a1.7 1.7 0 0 0-.306.305.871.871 0 0 0-.167.43v.327h-1.163v-.387c.017-.247.065-.453.142-.62a1.79 1.79 0 0 1 .271-.426c.104-.117.213-.22.328-.305.114-.087.22-.173.318-.258.097-.087.176-.181.237-.285a.703.703 0 0 0 .081-.387c0-.264-.064-.46-.193-.585-.13-.127-.309-.19-.539-.19a.834.834 0 0 0-.4.09.799.799 0 0 0-.275.242c-.072.1-.125.218-.16.352-.034.136-.05.28-.05.436h-1.266c.005-.311.058-.595.159-.853zm2.578 3.693v1.325h-1.352v-1.325z"/></defs><g><g transform="translate(-944 -646)"><use fill="#bbcac8" xlink:href="#xwy9a"/></g></g></svg>