<?xml version="1.0" encoding="utf-8"?>
<!-- Generator: Adobe Illustrator 16.0.0, SVG Export Plug-In . SVG Version: 6.00 Build 0)  -->
<!DOCTYPE svg PUBLIC "-//W3C//DTD SVG 1.1//EN" "http://www.w3.org/Graphics/SVG/1.1/DTD/svg11.dtd">
<svg version="1.1" id="Слой_1" xmlns="http://www.w3.org/2000/svg" xmlns:xlink="http://www.w3.org/1999/xlink" x="0px" y="0px"
	 width="33px" height="33px" viewBox="-164.5 181.5 33 33" enable-background="new -164.5 181.5 33 33" xml:space="preserve">
<path fill-rule="evenodd" clip-rule="evenodd" fill="#15E6CD" d="M-148,181.5c-9.113,0-16.5,7.387-16.5,16.5
	c0,9.112,7.387,16.5,16.5,16.5c9.112,0,16.5-7.388,16.5-16.5C-131.5,188.887-138.888,181.5-148,181.5z M-148,213.5
	c-8.561,0-15.5-6.939-15.5-15.5s6.939-15.5,15.5-15.5c8.56,0,15.5,6.939,15.5,15.5S-139.44,213.5-148,213.5z M-139.22,192.479
	c-0.506,0.761-1.134,1.417-1.866,1.954c0.006,0.147,0.009,0.295,0.009,0.444c0,5.34-4.052,10.864-10.832,10.864
	c-2.073,0-4.091-0.594-5.836-1.717c-0.036-0.022-0.052-0.068-0.037-0.108c0.014-0.04,0.056-0.065,0.098-0.062
	c0.293,0.035,0.592,0.053,0.89,0.053c1.613,0,3.139-0.5,4.43-1.448c-1.548-0.132-2.878-1.182-3.356-2.681
	c-0.01-0.031-0.002-0.064,0.019-0.09c0.021-0.023,0.055-0.035,0.086-0.029c0.429,0.082,0.865,0.087,1.286,0.02
	c-1.596-0.498-2.718-1.998-2.718-3.705l0-0.05c0-0.032,0.019-0.063,0.046-0.078c0.028-0.017,0.063-0.017,0.091-0.001
	c0.416,0.231,0.877,0.381,1.349,0.438c-0.917-0.733-1.456-1.846-1.456-3.034c0-0.687,0.181-1.36,0.523-1.95
	c0.015-0.025,0.042-0.043,0.072-0.045c0.031-0.004,0.06,0.01,0.079,0.033c1.877,2.311,4.639,3.732,7.592,3.915
	c-0.049-0.249-0.074-0.505-0.074-0.764c0-2.138,1.735-3.878,3.867-3.878c1.049,0,2.062,0.432,2.788,1.188
	c0.818-0.168,1.598-0.47,2.318-0.898c0.033-0.02,0.074-0.016,0.104,0.008c0.03,0.023,0.042,0.064,0.03,0.101
	c-0.244,0.766-0.72,1.434-1.359,1.915c0.602-0.104,1.187-0.282,1.742-0.529c0.037-0.018,0.082-0.007,0.108,0.025
	C-139.2,192.4-139.197,192.445-139.22,192.479z"/>
</svg>
