<svg version="1.1" xmlns="http://www.w3.org/2000/svg" xmlns:xlink="http://www.w3.org/1999/xlink" x="0px" y="0px"
	 width="19px" height="20px" viewBox="-165 185.5 19 20" enable-background="new -165 185.5 19 20" xml:space="preserve">
<path fill="#17CFB9" d="M-155.289,186.5c0.591,0,1.105,0.135,1.6,0.428c0.437,0.242,0.688,0.54,0.799,0.696
	c0.125,0.175,0.305,0.306,0.509,0.371c0.168,0.054,0.315,0.162,0.433,0.317c0.407,0.541,0.491,1.615,0.234,3.024
	c-0.055,0.296,0.011,0.578,0.206,0.808c0.001,0.002,0.1,0.248-0.112,0.992c-0.203,0.728-0.361,0.93-0.413,0.98
	c-0.297,0.121-0.521,0.379-0.595,0.695c-0.073,0.305-0.17,0.596-0.291,0.867c-0.059,0.129-0.087,0.268-0.087,0.407v1.215
	c0,0.378,0.212,0.722,0.546,0.892c0.732,0.373,2.637,1.397,4.503,2.852c0.603,0.473,0.963,1.219,0.963,1.996v1.064
	c0,0.215-0.178,0.395-0.389,0.395h-16.231c-0.214,0-0.389-0.174-0.389-0.391v-1.064c0-0.777,0.36-1.523,0.964-1.996
	c1.852-1.447,3.766-2.477,4.502-2.852c0.334-0.17,0.545-0.514,0.545-0.891v-0.986c0-0.166-0.041-0.33-0.121-0.478
	c-0.211-0.392-0.366-0.835-0.458-1.313c-0.048-0.249-0.187-0.468-0.391-0.618c-0.031-0.023-0.192-0.188-0.414-0.982
	c-0.204-0.729-0.128-0.951-0.131-0.957c0.319-0.233,0.47-0.636,0.384-1.022c-0.104-0.472-0.093-0.951,0.04-1.458
	c0.133-0.583,0.45-1.135,0.953-1.655c0.259-0.278,0.556-0.524,0.906-0.75c0.275-0.188,0.555-0.333,0.833-0.428l0,0
	c0.004-0.002,0.008-0.003,0.012-0.005c0.248-0.081,0.497-0.127,0.754-0.141C-155.522,186.507-155.406,186.5-155.289,186.5
	 M-155.289,185.5c-0.14,0-0.278,0.008-0.4,0.016c-0.342,0.018-0.68,0.082-1.014,0.192c-0.004,0-0.008,0.004-0.012,0.004
	c-0.367,0.127-0.725,0.312-1.071,0.549c-0.396,0.255-0.758,0.556-1.072,0.892c-0.615,0.635-1.022,1.351-1.197,2.115
	c-0.167,0.635-0.179,1.272-0.041,1.898c-0.073,0.053-0.138,0.114-0.196,0.188c-0.28,0.373-0.293,0.957-0.044,1.846
	c0.171,0.613,0.399,1.238,0.786,1.521c0.114,0.59,0.305,1.125,0.562,1.6v0.986c-0.7,0.355-2.7,1.418-4.664,2.953
	c-0.843,0.658-1.348,1.697-1.348,2.785v1.064c0,0.77,0.624,1.391,1.385,1.391h16.23c0.763,0,1.385-0.627,1.385-1.395v-1.064
	c0-1.084-0.505-2.127-1.35-2.785c-1.963-1.531-3.961-2.598-4.662-2.953v-1.215c0.143-0.32,0.261-0.668,0.351-1.044
	c0.521-0.188,0.808-0.957,0.998-1.636c0.257-0.904,0.228-1.539-0.073-1.891c0.317-1.738,0.176-3.02-0.418-3.809
	c-0.316-0.413-0.682-0.589-0.926-0.667c-0.176-0.246-0.529-0.658-1.129-0.99C-153.828,185.684-154.523,185.5-155.289,185.5
	L-155.289,185.5z"/>
</svg>
