<svg xmlns="http://www.w3.org/2000/svg" xmlns:xlink="http://www.w3.org/1999/xlink" width="33" height="33" viewBox="0 0 33 33"><defs><path id="ut4fa" d="M1391.5 847c9.112 0 16.5 7.387 16.5 16.5 0 9.112-7.388 16.5-16.5 16.5-9.113 0-16.5-7.388-16.5-16.5 0-9.113 7.387-16.5 16.5-16.5zm-15.5 16.5c0 8.56 6.94 15.5 15.5 15.5 8.56 0 15.5-6.94 15.5-15.5 0-8.56-6.94-15.5-15.5-15.5-8.56 0-15.5 6.94-15.5 15.5zm24 3.94c0 1.418-1.138 2.567-2.541 2.567h-11.918c-1.403 0-2.54-1.15-2.54-2.567v-6.88c0-1.418 1.137-2.567 2.54-2.567h11.918c1.403 0 2.54 1.149 2.54 2.567zm-5.345-3.769l-5.208-3.231v6.463z"/></defs><g><g transform="translate(-1375 -847)"><use fill="#15e6cd" xlink:href="#ut4fa"/></g></g></svg>