<svg version="1.1"  xmlns="http://www.w3.org/2000/svg" xmlns:xlink="http://www.w3.org/1999/xlink" x="0px" y="0px"
	 width="22px" height="22px" viewBox="0 0 22 22" enable-background="new 0 0 22 22" xml:space="preserve">
<g>
	<path fill="#17CFB9" d="M21.799,16.691c-0.82-1.548-3.669-3.228-3.794-3.301c-0.37-0.211-0.749-0.318-1.102-0.318
		c-0.145,0-0.285,0.018-0.418,0.055c-0.345,0.096-0.626,0.313-0.815,0.631c-0.417,0.498-0.933,1.08-1.059,1.17
		c-0.429,0.291-0.82,0.437-1.194,0.437c-0.469,0-0.913-0.23-1.377-0.693L7.348,9.984C6.512,9.149,6.436,8.381,7.09,7.417
		c0.092-0.126,0.673-0.643,1.172-1.06C8.58,6.168,8.798,5.888,8.894,5.543c0.125-0.451,0.029-1.005-0.267-1.522
		C8.557,3.9,6.875,1.055,5.324,0.236C5.024,0.078,4.7,0,4.378,0C3.858,0,3.346,0.203,2.957,0.592L1.92,1.626
		C0.28,3.264-0.313,5.12,0.155,7.143c0.359,1.548,1.356,3.189,2.952,4.882c2.108,2.389,4.423,4.761,6.504,6.513
		c1.831,1.813,3.605,2.931,5.273,3.316c0.447,0.103,0.886,0.155,1.316,0.155c1.519,0,2.929-0.642,4.206-1.918l1.037-1.035
		C22.073,18.428,22.216,17.478,21.799,16.691z M20.737,18.349L19.7,19.384c-1.095,1.094-2.24,1.625-3.5,1.625
		c-0.352,0-0.72-0.043-1.091-0.129c-1.482-0.343-3.095-1.37-4.794-3.053l-0.028-0.028l-0.031-0.026
		c-2.385-2.008-4.796-4.594-6.421-6.434C2.356,9.771,1.446,8.284,1.129,6.917C0.738,5.23,1.228,3.73,2.626,2.334l1.037-1.035
		C3.856,1.106,4.11,1,4.378,1c0.167,0,0.328,0.04,0.479,0.12c1.094,0.578,2.5,2.704,2.901,3.396c0.19,0.333,0.211,0.617,0.171,0.761
		C7.912,5.341,7.876,5.424,7.751,5.498L7.683,5.539L7.621,5.59c-0.418,0.35-1.149,0.976-1.359,1.266
		C6.02,7.213,5.853,7.565,5.755,7.912C5.43,7.285,5.159,6.561,5.073,5.738C5.044,5.464,4.802,5.266,4.524,5.292
		C4.25,5.321,4.05,5.566,4.078,5.841c0.292,2.811,2.323,4.701,2.777,5.083l4.434,4.446c0.082,0.081,2.042,1.986,5.058,2.298
		c0.011,0,0.063,0.003,0.074,0.003c0.276,0,0.504-0.224,0.504-0.5c0-0.276-0.219-0.5-0.495-0.5c-0.76-0.079-1.432-0.277-2.021-0.514
		c0.255-0.102,0.516-0.235,0.788-0.419c0.249-0.179,0.812-0.827,1.241-1.339l0.051-0.062l0.041-0.069
		c0.058-0.097,0.127-0.152,0.221-0.178c0.046-0.013,0.098-0.019,0.154-0.019c0.179,0,0.395,0.066,0.596,0.181
		c1.093,0.641,2.905,1.943,3.416,2.907C21.125,17.555,21.054,18.033,20.737,18.349z"/>
</g>
</svg>
