<svg version="1.1" id="Слой_1" xmlns="http://www.w3.org/2000/svg" xmlns:xlink="http://www.w3.org/1999/xlink" x="0px" y="0px"
	 width="18px" height="25px" viewBox="-164.5 181.5 18 25" enable-background="new -164.5 181.5 18 25" xml:space="preserve">
<path fill="#17CFB9" d="M-153,187.5h-5c-0.276,0-0.5-0.224-0.5-0.5s0.224-0.5,0.5-0.5h5c0.276,0,0.5,0.224,0.5,0.5
	S-152.724,187.5-153,187.5z M-146.5,205v-17c0-0.827-0.673-1.5-1.5-1.5h-1c-0.276,0-0.5,0.224-0.5,0.5s0.224,0.5,0.5,0.5h1
	c0.276,0,0.5,0.225,0.5,0.5v17c0,0.275-0.224,0.5-0.5,0.5h-15c-0.276,0-0.5-0.225-0.5-0.5v-17c0-0.275,0.224-0.5,0.5-0.5h1
	c0.276,0,0.5-0.224,0.5-0.5s-0.224-0.5-0.5-0.5h-1c-0.827,0-1.5,0.673-1.5,1.5v17c0,0.827,0.673,1.5,1.5,1.5h15
	C-147.173,206.5-146.5,205.827-146.5,205z M-158.5,189.5c0-0.276-0.224-0.5-0.5-0.5s-0.5,0.224-0.5,0.5c0,0.275-0.224,0.5-0.5,0.5
	s-0.5-0.225-0.5-0.5c0-0.276-0.224-0.5-0.5-0.5s-0.5,0.224-0.5,0.5c0,0.827,0.673,1.5,1.5,1.5S-158.5,190.327-158.5,189.5z
	 M-149.5,189.5c0-0.276-0.224-0.5-0.5-0.5s-0.5,0.224-0.5,0.5c0,0.275-0.224,0.5-0.5,0.5s-0.5-0.225-0.5-0.5
	c0-0.276-0.224-0.5-0.5-0.5s-0.5,0.224-0.5,0.5c0,0.827,0.673,1.5,1.5,1.5S-149.5,190.327-149.5,189.5z M-150.5,188.5v-2
	c0-2.757-2.243-5-5-5s-5,2.243-5,5v2c0,0.276,0.224,0.5,0.5,0.5s0.5-0.224,0.5-0.5v-2c0-2.206,1.794-4,4-4s4,1.794,4,4v2
	c0,0.276,0.224,0.5,0.5,0.5S-150.5,188.776-150.5,188.5z"/>
</svg>
