<?xml version="1.0" encoding="utf-8"?>
<!-- Generator: Adobe Illustrator 16.0.0, SVG Export Plug-In . SVG Version: 6.00 Build 0)  -->
<!DOCTYPE svg PUBLIC "-//W3C//DTD SVG 1.1//EN" "http://www.w3.org/Graphics/SVG/1.1/DTD/svg11.dtd">
<svg version="1.1" id="Слой_1" xmlns="http://www.w3.org/2000/svg" xmlns:xlink="http://www.w3.org/1999/xlink" x="0px" y="0px"
	 width="22px" height="22px" viewBox="-164.5 181.5 22 22" enable-background="new -164.5 181.5 22 22" xml:space="preserve">
<path fill="#BBCAC8" d="M-144.5,182.5c0.551,0,1,0.448,1,1v18c0,0.552-0.449,1-1,1h-18c-0.551,0-1-0.448-1-1v-18
	c0-0.552,0.449-1,1-1H-144.5 M-144.5,181.5h-18c-1.104,0-2,0.896-2,2v18c0,1.104,0.896,2,2,2h18c1.104,0,2-0.896,2-2v-18
	C-142.5,182.396-143.395,181.5-144.5,181.5L-144.5,181.5z"/>
<polygon fill="#09CCB4" points="-155,195.364 -159.24,191.124 -159.778,192 -155,196.778 -147.222,189 -148.098,188.462 "/>
</svg>
