<svg version="1.1" xmlns="http://www.w3.org/2000/svg" xmlns:xlink="http://www.w3.org/1999/xlink" x="0px" y="0px"
	 width="20px" height="12px" viewBox="0 0 20 12" enable-background="new 0 0 20 12" xml:space="preserve">
<path fill="#17CFB9" d="M19,5h-0.154l-1.201-2.703C17.563,2.116,17.385,2,17.188,2H14V1c0-0.552-0.448-1-1-1H4C3.447,0,3,0.448,3,1
	v1H0.5C0.224,2,0,2.224,0,2.5S0.224,3,0.5,3H3v1H2.5C2.224,4,2,4.224,2,4.5S2.224,5,2.5,5H3v1H1.5C1.224,6,1,6.224,1,6.5
	C1,6.775,1.224,7,1.5,7H3v2c0,0.552,0.448,1,1,1h1c0,1.104,0.896,2,2,2s2-0.896,2-2h4h1l0,0c0,1.104,0.896,2,2,2s2-0.896,2-2h1
	c0.552,0,1-0.448,1-1V6C20,5.448,19.552,5,19,5z M7,11c-0.551,0-1-0.449-1-1s0.449-1,1-1s1,0.449,1,1S7.551,11,7,11z M13,9H8.723
	C8.376,8.405,7.738,8,7,8S5.624,8.405,5.277,9H4V7h2.5C6.776,7,7,6.775,7,6.5C7,6.224,6.776,6,6.5,6H4V5h3.5C7.776,5,8,4.776,8,4.5
	S7.776,4,7.5,4H4V3h1.5C5.776,3,6,2.776,6,2.5S5.776,2,5.5,2H4V1h9V9z M14,5V3h2.863l0.889,2H14z M16,11c-0.551,0-1-0.449-1-1
	s0.449-1,1-1s1,0.449,1,1S16.551,11,16,11z M19,9h-1.277C17.376,8.405,16.738,8,16,8s-1.376,0.405-1.723,1H14V6h5V9z"/>
</svg>
