<?xml version="1.0" encoding="utf-8"?>
<!-- Generator: Adobe Illustrator 16.0.0, SVG Export Plug-In . SVG Version: 6.00 Build 0)  -->
<!DOCTYPE svg PUBLIC "-//W3C//DTD SVG 1.1//EN" "http://www.w3.org/Graphics/SVG/1.1/DTD/svg11.dtd">
<svg version="1.1" id="Слой_1" xmlns="http://www.w3.org/2000/svg" xmlns:xlink="http://www.w3.org/1999/xlink" x="0px" y="0px"
	 width="52px" height="33px" viewBox="-164.5 181.5 52 33" enable-background="new -164.5 181.5 52 33" xml:space="preserve">
<path fill="#15E6CD" d="M-114.5,182.5c0.552,0,1,0.448,1,1v29c0,0.551-0.448,1-1,1h-48c-0.551,0-1-0.449-1-1v-29
	c0-0.552,0.449-1,1-1H-114.5 M-114.5,181.5h-48c-1.104,0-2,0.896-2,2v29c0,1.104,0.896,2,2,2h48c1.104,0,2-0.896,2-2v-29
	C-112.5,182.396-113.396,181.5-114.5,181.5L-114.5,181.5z M-157.704,199.843c-0.452,0.408-1.039,0.587-1.969,0.587h-0.386v-4.878
	h0.386c0.93,0,1.494,0.166,1.969,0.597c0.498,0.442,0.797,1.129,0.797,1.836C-156.907,198.692-157.206,199.4-157.704,199.843z
	 M-159.385,194.302h-2.112v7.376h2.101c1.117,0,1.924-0.264,2.632-0.852c0.841-0.696,1.339-1.746,1.339-2.831
	C-155.425,195.818-157.051,194.302-159.385,194.302 M-154.763,201.678h1.438v-7.376h-1.438V201.678z M-149.806,197.132
	c-0.864-0.319-1.117-0.53-1.117-0.929c0-0.465,0.451-0.816,1.072-0.816c0.431,0,0.785,0.176,1.16,0.597l0.753-0.985
	c-0.619-0.542-1.359-0.818-2.167-0.818c-1.305,0-2.3,0.906-2.3,2.113c0,1.017,0.463,1.537,1.814,2.023
	c0.563,0.199,0.85,0.331,0.995,0.42c0.288,0.188,0.431,0.453,0.431,0.764c0,0.597-0.475,1.04-1.117,1.04
	c-0.686,0-1.239-0.343-1.57-0.983l-0.93,0.895c0.663,0.973,1.459,1.404,2.554,1.404c1.495,0,2.544-0.994,2.544-2.422
	C-147.685,198.262-148.169,197.73-149.806,197.132 M-147.23,197.995c0,2.168,1.702,3.849,3.894,3.849
	c0.619,0,1.149-0.121,1.804-0.43v-1.693c-0.575,0.575-1.085,0.809-1.737,0.809c-1.449,0-2.478-1.051-2.478-2.545
	c0-1.416,1.062-2.533,2.411-2.533c0.686,0,1.206,0.244,1.804,0.83v-1.693c-0.632-0.32-1.151-0.453-1.77-0.453
	C-145.483,194.135-147.23,195.85-147.23,197.995 M-130.125,199.256l-1.967-4.954h-1.572l3.13,7.565h0.774l3.187-7.565h-1.56
	L-130.125,199.256 M-125.922,201.678h4.08v-1.248h-2.643v-1.992h2.545v-1.249h-2.545v-1.637h2.643v-1.25h-4.08V201.678
	 M-119.032,197.697h-0.421v-2.234h0.444c0.896,0,1.383,0.376,1.383,1.094C-117.626,197.299-118.113,197.697-119.032,197.697z
	 M-116.146,196.479c0-1.381-0.951-2.178-2.61-2.178h-2.133v7.376h1.437v-2.963h0.188l1.991,2.963h1.77l-2.322-3.107
	C-116.742,198.351-116.146,197.609-116.146,196.479 M-137.252,194.132c-2.136,0-3.866,1.731-3.866,3.866s1.73,3.866,3.866,3.866
	c2.135,0,3.865-1.731,3.865-3.866S-135.117,194.132-137.252,194.132z"/>
</svg>
