<svg version="1.1" id="Слой_1" xmlns="http://www.w3.org/2000/svg" xmlns:xlink="http://www.w3.org/1999/xlink" x="0px" y="0px"
	 width="33px" height="33px" viewBox="-164.5 181.5 33 33" enable-background="new -164.5 181.5 33 33" xml:space="preserve">
<path fill-rule="evenodd" clip-rule="evenodd" fill="#15E6CD" d="M-148,181.5c-9.113,0-16.5,7.387-16.5,16.5
	c0,9.112,7.387,16.5,16.5,16.5c9.112,0,16.5-7.388,16.5-16.5C-131.5,188.887-138.888,181.5-148,181.5z M-148,213.5
	c-8.561,0-15.5-6.939-15.5-15.5s6.939-15.5,15.5-15.5c8.56,0,15.5,6.939,15.5,15.5S-139.44,213.5-148,213.5z M-150.485,194.414
	c0-2.103,2.021-2.894,3.08-2.925h2.318v2.527h-1.697c-0.168,0-0.325,0.063-0.467,0.188c-0.141,0.124-0.212,0.242-0.212,0.352v1.917
	h2.375c-0.024,0.308-0.053,0.263-0.083,0.552l-0.095,0.764c-0.037,0.258-0.075,0.497-0.113,0.717h-2.133v7.006h-2.974v-7.006h-2.027
	v-2.032h2.027V194.414z"/>
</svg>
