<svg version="1.1" xmlns="http://www.w3.org/2000/svg" xmlns:xlink="http://www.w3.org/1999/xlink" x="0px" y="0px"
	 width="25px" height="22px" viewBox="-164.5 181.5 25 22" enable-background="new -164.5 181.5 25 22" xml:space="preserve">
<path fill="#17CFB9" d="M-146.438,182.5c0.176,0,0.347,0.011,0.503,0.026c2.109,0.225,3.57,0.901,4.465,2.07
	c0.888,1.157,1.167,2.774,0.832,4.805c-0.494,3.013-4.86,7.129-8.061,10.146c-0.845,0.791-1.895,1.775-2.555,2.489
	c-0.185,0.214-0.529,0.463-0.698,0.463c-0.177,0-0.534-0.254-0.752-0.498c-0.578-0.619-1.435-1.419-2.418-2.338l-0.098-0.094
	c-3.227-3.015-7.646-7.143-8.145-10.168c-0.333-2.031-0.052-3.648,0.835-4.807c0.896-1.168,2.356-1.845,4.459-2.068
	c0.165-0.018,0.334-0.027,0.509-0.027c1.816,0,3.653,0.846,4.794,2.207l0.767,0.915l0.767-0.916
	C-150.094,183.346-148.257,182.5-146.438,182.5 M-146.438,181.5c-2.126,0-4.245,0.99-5.562,2.564
	c-1.319-1.574-3.436-2.564-5.561-2.564c-0.211,0-0.414,0.012-0.612,0.032c-2.394,0.255-4.078,1.058-5.15,2.455
	c-1.062,1.386-1.408,3.261-1.028,5.577c0.555,3.364,4.938,7.456,8.458,10.745l0.081,0.077c0.98,0.916,1.828,1.708,2.379,2.298
	c0.075,0.084,0.747,0.815,1.483,0.815c0.741,0,1.398-0.743,1.459-0.814c0.586-0.633,1.537-1.527,2.477-2.408
	c3.48-3.281,7.814-7.363,8.364-10.714c0.382-2.314,0.037-4.189-1.025-5.575c-1.071-1.398-2.756-2.201-5.153-2.456
	C-146.022,181.513-146.227,181.5-146.438,181.5L-146.438,181.5z"/>
</svg>
