<?xml version="1.0" encoding="utf-8"?>
<!-- Generator: Adobe Illustrator 16.0.0, SVG Export Plug-In . SVG Version: 6.00 Build 0)  -->
<!DOCTYPE svg PUBLIC "-//W3C//DTD SVG 1.1//EN" "http://www.w3.org/Graphics/SVG/1.1/DTD/svg11.dtd">
<svg version="1.1" id="Слой_1" xmlns="http://www.w3.org/2000/svg" xmlns:xlink="http://www.w3.org/1999/xlink" x="0px" y="0px"
	 width="25px" height="22px" viewBox="-164.5 181.5 25 22" enable-background="new -164.5 181.5 25 22" xml:space="preserve">
<path fill="#17CFB9" d="M-156.6,182.5c0.048,0,0.095,0.003,0.148,0.01c1.002,0.118,1.368,0.485,1.552,0.746
	c0.313,0.448,0.407,1.102,0.28,1.943c-0.193,1.285-2.038,3.181-3.383,4.563c-0.374,0.381-0.73,0.748-1.012,1.065
	c-0.261-0.291-0.607-0.645-0.977-1.021l-0.048-0.049c-1.355-1.383-3.21-3.276-3.403-4.56c-0.127-0.841-0.034-1.494,0.275-1.937
	c0.188-0.267,0.555-0.634,1.559-0.753c0.047-0.006,0.096-0.009,0.146-0.009c0.618,0,1.245,0.318,1.638,0.831l0.795,1.04l0.793-1.041
	C-157.847,182.818-157.219,182.5-156.6,182.5 M-156.6,181.5c-0.93,0-1.856,0.469-2.432,1.224c-0.578-0.755-1.502-1.224-2.432-1.224
	c-0.093,0-0.182,0.006-0.269,0.017c-1.047,0.124-1.783,0.504-2.252,1.167c-0.464,0.665-0.616,1.558-0.448,2.665
	c0.242,1.608,2.159,3.559,3.697,5.129l0.036,0.036c0.429,0.438,0.798,0.815,1.04,1.097c0.033,0.041,0.327,0.39,0.648,0.39
	c0.324,0,0.612-0.354,0.638-0.389c0.256-0.302,0.672-0.729,1.083-1.149c1.522-1.563,3.417-3.513,3.658-5.114
	c0.167-1.105,0.016-1.998-0.448-2.664c-0.469-0.663-1.206-1.043-2.254-1.167C-156.418,181.506-156.508,181.5-156.6,181.5
	L-156.6,181.5z"/>
</svg>
