<?xml version="1.0" encoding="utf-8"?>
<!-- Generator: Adobe Illustrator 16.0.0, SVG Export Plug-In . SVG Version: 6.00 Build 0)  -->
<!DOCTYPE svg PUBLIC "-//W3C//DTD SVG 1.1//EN" "http://www.w3.org/Graphics/SVG/1.1/DTD/svg11.dtd">
<svg version="1.1" id="Слой_1" xmlns="http://www.w3.org/2000/svg" xmlns:xlink="http://www.w3.org/1999/xlink" x="0px" y="0px"
	 width="33px" height="33px" viewBox="-164.5 181.5 33 33" enable-background="new -164.5 181.5 33 33" xml:space="preserve">
<path fill-rule="evenodd" clip-rule="evenodd" fill="#15E6CD" d="M-148,181.5c-9.112,0-16.5,7.387-16.5,16.5
	c0,9.112,7.388,16.5,16.5,16.5s16.5-7.388,16.5-16.5C-131.5,188.887-138.888,181.5-148,181.5z M-148,213.5
	c-8.561,0-15.5-6.939-15.5-15.5s6.939-15.5,15.5-15.5s15.5,6.939,15.5,15.5S-139.439,213.5-148,213.5z M-143.744,188.5h-8.513
	c-2.892,0-5.244,2.352-5.244,5.243v8.514c0,2.891,2.352,5.243,5.244,5.243h8.513c2.892,0,5.244-2.353,5.244-5.243v-8.514
	C-138.5,190.852-140.852,188.5-143.744,188.5z M-139.542,202.607c0,2.123-1.728,3.849-3.851,3.849h-9.214
	c-2.123,0-3.851-1.726-3.851-3.849v-9.215c0-2.123,1.728-3.85,3.851-3.85h9.214c2.123,0,3.851,1.727,3.851,3.85V202.607
	L-139.542,202.607z M-148,193.104c-2.699,0-4.896,2.196-4.896,4.896c0,2.699,2.196,4.896,4.896,4.896s4.896-2.196,4.896-4.896
	C-143.104,195.3-145.301,193.104-148,193.104z M-148,201.209c-1.77,0-3.21-1.439-3.21-3.209c0-1.771,1.44-3.21,3.21-3.21
	c1.77,0,3.21,1.439,3.21,3.21C-144.79,199.77-146.23,201.209-148,201.209z M-142.898,191.674c-0.326,0-0.644,0.132-0.874,0.363
	c-0.229,0.229-0.363,0.548-0.363,0.874c0,0.324,0.133,0.643,0.363,0.874c0.23,0.229,0.548,0.362,0.874,0.362
	s0.643-0.133,0.874-0.362c0.231-0.231,0.362-0.55,0.362-0.874c0-0.326-0.131-0.646-0.362-0.874
	C-142.253,191.806-142.573,191.674-142.898,191.674z"/>
</svg>
