<svg xmlns="http://www.w3.org/2000/svg" xmlns:xlink="http://www.w3.org/1999/xlink" width="34" height="24" viewBox="0 0 34 24"><defs><path id="mkkpa" d="M523.703 1615.076a1.172 1.172 0 0 1 1.673 0 1.18 1.18 0 0 1 0 1.657l-8.484 8.484h27.997c.652 0 1.188.519 1.188 1.171 0 .653-.536 1.189-1.188 1.189h-27.997l8.484 8.468c.452.468.452 1.222 0 1.673a1.172 1.172 0 0 1-1.673 0l-10.493-10.492a1.18 1.18 0 0 1 0-1.657z"/></defs><g><g transform="translate(-512 -1614)"><use fill="" xlink:href="#mkkpa"/></g></g></svg>