<?xml version="1.0" encoding="utf-8"?>
<!-- Generator: Adobe Illustrator 16.0.0, SVG Export Plug-In . SVG Version: 6.00 Build 0)  -->
<!DOCTYPE svg PUBLIC "-//W3C//DTD SVG 1.1//EN" "http://www.w3.org/Graphics/SVG/1.1/DTD/svg11.dtd">
<svg version="1.1" id="Слой_1" xmlns="http://www.w3.org/2000/svg" xmlns:xlink="http://www.w3.org/1999/xlink" x="0px" y="0px"
	 width="1000px" height="1000px" viewBox="0 0 1000 1000" enable-background="new 0 0 1000 1000" xml:space="preserve">
<path fill="#01211D" d="M210.562,163.174c0,0-0.035-0.007-0.102-0.02c-0.065-0.018-0.16-0.044-0.282-0.079
	c-0.118-0.04-0.262-0.089-0.427-0.145c-0.176-0.058-0.372-0.122-0.548-0.18c-0.198-0.065-0.416-0.124-0.638-0.157
	c-0.216-0.042-0.459-0.019-0.524,0.069c-0.02,0.024-0.029,0.045-0.049,0.086l-0.044,0.163c-0.03,0.108-0.026,0.22-0.02,0.329
	c0.01,0.221,0.13,0.434,0.269,0.633c0.153,0.196,0.333,0.384,0.547,0.537c0.204,0.164,0.428,0.304,0.651,0.428
	c0.222,0.128,0.445,0.244,0.664,0.338c0.214,0.107,0.426,0.186,0.62,0.267c0.174,0.066,0.365,0.138,0.539,0.203
	c0.163,0.055,0.304,0.11,0.424,0.144c0.119,0.039,0.212,0.068,0.276,0.089c0.063,0.021,0.098,0.033,0.098,0.033
	s-0.036-0.001-0.103-0.004c-0.067-0.003-0.166-0.008-0.292-0.015c-0.126-0.007-0.276-0.031-0.451-0.05
	c-0.175-0.019-0.37-0.058-0.583-0.101c-0.209-0.056-0.439-0.108-0.677-0.188c-0.238-0.077-0.485-0.176-0.736-0.291
	c-0.249-0.121-0.501-0.259-0.744-0.433c-0.244-0.168-0.47-0.385-0.67-0.633c-0.178-0.264-0.341-0.57-0.356-0.917
	c-0.003-0.166,0.008-0.341,0.057-0.492l0.078-0.227c0.038-0.078,0.098-0.18,0.171-0.245c0.354-0.271,0.695-0.171,0.938-0.12
	c0.254,0.074,0.474,0.169,0.67,0.265c0.196,0.094,0.367,0.195,0.517,0.285c0.149,0.089,0.279,0.167,0.386,0.231
	c0.107,0.063,0.191,0.113,0.249,0.147C210.531,163.158,210.562,163.174,210.562,163.174z M212.136,166.069
	c0.086,0.097,0.181,0.274,0.366,0.446c0.352,0.366,0.949,0.823,1.784,1.275c0.837,0.448,1.912,0.872,3.172,1.264
	c1.262,0.385,2.708,0.744,4.308,1.021c0.788,0.146,1.667,0.258,2.551,0.228c0.884-0.026,1.75-0.067,2.603,0.163
	c0.219,0.04,0.422,0.118,0.617,0.216c0.196,0.098,0.404,0.158,0.595,0.283c0.379,0.258,0.771,0.493,1.143,0.807
	c0.754,0.584,1.518,1.242,2.356,1.837c0.413,0.305,0.882,0.552,1.326,0.833c0.473,0.237,0.972,0.442,1.466,0.657
	c0.526,0.131,1.049,0.281,1.591,0.394c0.559,0.057,1.159,0.103,1.743-0.112c0.581-0.197,1.075-0.576,1.466-0.986
	c0.386-0.416,0.714-0.842,1.05-1.249c0.666-0.804,1.416-1.494,2.333-1.926l0.702-0.288l0.737-0.208l1.567-0.38
	c1.042-0.254,2.08-0.508,3.11-0.76c2.055-0.502,4.077-0.971,6.058-1.309c0.493-0.092,0.983-0.183,1.468-0.273
	c0.489-0.066,0.973-0.132,1.452-0.197c0.959-0.122,1.895-0.276,2.812-0.362c1.837-0.13,3.572-0.345,5.183-0.381
	c1.605-0.053,3.084-0.101,4.396-0.145c1.311,0.018,2.454,0.035,3.394,0.048c0.942,0.01,1.683,0.018,2.187,0.023
	c0.505,0.004,0.774,0.006,0.774,0.006s-0.269-0.017-0.772-0.051c-0.504-0.032-1.243-0.079-2.183-0.138
	c-0.942-0.053-2.085-0.119-3.397-0.193c-1.318-0.006-2.803-0.013-4.416-0.02c-1.619-0.007-3.369,0.161-5.224,0.243
	c-0.926,0.069-1.871,0.207-2.841,0.312c-0.484,0.057-0.975,0.114-1.469,0.171c-0.491,0.082-0.987,0.164-1.487,0.248
	c-2.003,0.318-4.051,0.77-6.119,1.251c-1.03,0.247-2.068,0.496-3.11,0.746l-1.566,0.372l-0.816,0.227l-0.793,0.322
	c-1.041,0.492-1.905,1.303-2.597,2.15c-0.688,0.84-1.29,1.72-2.152,1.999c-0.419,0.167-0.907,0.137-1.384,0.096
	c-0.485-0.099-0.971-0.232-1.454-0.343c-0.458-0.196-0.919-0.378-1.364-0.593c-0.422-0.263-0.862-0.485-1.264-0.775
	c-0.819-0.559-1.573-1.184-2.365-1.775c-0.378-0.308-0.814-0.563-1.227-0.83c-0.209-0.13-0.46-0.208-0.686-0.311
	c-0.229-0.107-0.462-0.189-0.702-0.229c-0.951-0.229-1.911-0.154-2.759-0.106c-0.858,0.051-1.658-0.03-2.461-0.154
	c-1.588-0.233-3.035-0.525-4.299-0.852c-1.261-0.334-2.34-0.708-3.184-1.114c-0.845-0.402-1.457-0.822-1.823-1.166
	c-0.194-0.16-0.296-0.329-0.388-0.421c-0.085-0.099-0.129-0.15-0.129-0.15S212.057,165.966,212.136,166.069z M234.349,168.061
	c-0.025,0.049-0.061,0.121-0.106,0.211c-0.039,0.095-0.108,0.205-0.146,0.345c-0.029,0.143-0.064,0.31-0.085,0.497
	c0.043,0.181,0.019,0.409,0.139,0.607c0.058,0.097,0.103,0.213,0.182,0.303c0.088,0.084,0.178,0.17,0.27,0.257
	c0.212,0.129,0.448,0.247,0.707,0.285c0.128,0.037,0.256,0.026,0.386,0.024c0.131,0.004,0.259-0.011,0.385-0.042
	c0.255-0.037,0.496-0.154,0.715-0.275c0.206-0.141,0.39-0.285,0.549-0.431c0.158-0.142,0.311-0.279,0.455-0.409
	c0.147-0.119,0.277-0.251,0.417-0.34c0.116-0.085,0.249-0.183,0.371-0.272c0.119-0.07,0.223-0.131,0.308-0.182
	c0.086-0.054,0.153-0.096,0.199-0.125c0.046-0.03,0.071-0.045,0.071-0.045s-0.028,0.006-0.081,0.018
	c-0.053,0.012-0.131,0.031-0.229,0.055c-0.099,0.027-0.22,0.06-0.357,0.098c-0.133,0.051-0.283,0.113-0.445,0.188
	c-0.165,0.069-0.32,0.181-0.499,0.282c-0.163,0.115-0.335,0.236-0.512,0.361c-0.168,0.133-0.342,0.249-0.516,0.351
	c-0.177,0.087-0.353,0.173-0.556,0.194c-0.097,0.028-0.195,0.042-0.293,0.04c-0.098,0.004-0.197,0.019-0.289-0.009
	c-0.193-0.012-0.362-0.088-0.523-0.165l-0.208-0.156c-0.064-0.055-0.098-0.134-0.151-0.198c-0.119-0.124-0.118-0.302-0.186-0.441
	c-0.005-0.156-0.015-0.303-0.026-0.438c0-0.134,0.036-0.25,0.048-0.348c0.014-0.1,0.025-0.178,0.033-0.231
	c0.008-0.055,0.011-0.084,0.011-0.084S234.374,168.013,234.349,168.061z M273.473,137.598c-0.507-0.026-1.251-0.083-2.2-0.12
	c-0.948,0.007-2.101-0.006-3.423,0.018c-1.321,0.073-2.813,0.073-4.439,0.275c-0.407,0.042-0.823,0.084-1.246,0.127
	c-0.417,0.081-0.842,0.163-1.274,0.246c-0.866,0.163-1.762,0.336-2.664,0.575c-1.819,0.434-3.708,0.984-5.658,1.576
	c-0.487,0.151-0.977,0.304-1.471,0.458c-0.494,0.153-0.974,0.389-1.466,0.581c-0.49,0.204-0.983,0.408-1.479,0.614
	c-0.472,0.25-0.946,0.501-1.423,0.753c-1.906,1.014-3.701,2.235-5.565,3.299c-1.865,1.051-3.799,1.979-5.806,2.618
	c-0.502,0.157-1.003,0.314-1.501,0.47c-0.498,0.158-0.99,0.325-1.504,0.408c-1.015,0.208-2.017,0.415-3.003,0.617
	c-1.986,0.34-3.938,0.513-5.773,0.762c-0.917,0.152-1.82,0.147-2.691,0.188c-0.872,0.035-1.714,0.068-2.522,0.1
	c-1.621,0.056-3.113,0.108-4.438,0.155c-1.314,0.148-2.46,0.278-3.403,0.385c-0.942,0.111-1.682,0.199-2.186,0.259
	c-0.504,0.061-0.772,0.093-0.772,0.093s0.271-0.017,0.777-0.049c0.506-0.033,1.25-0.082,2.195-0.144
	c0.943-0.066,2.089-0.147,3.403-0.239c1.321,0.003,2.809,0.006,4.425,0.009c0.815-0.01,1.664-0.021,2.542-0.032
	c0.879-0.018,1.791,0.011,2.718-0.118c1.856-0.215,3.825-0.354,5.844-0.66c1.004-0.195,2.026-0.393,3.06-0.593
	c0.522-0.08,1.028-0.244,1.54-0.399c0.511-0.154,1.026-0.309,1.542-0.464c2.058-0.645,4.055-1.592,5.962-2.657
	c1.89-1.091,3.681-2.32,5.535-3.315c0.462-0.251,0.923-0.502,1.382-0.752c0.478-0.204,0.953-0.408,1.426-0.61
	c0.477-0.192,0.931-0.425,1.42-0.583c0.488-0.158,0.974-0.314,1.455-0.47c1.923-0.624,3.795-1.207,5.588-1.67
	c0.891-0.262,1.769-0.455,2.619-0.639c0.425-0.094,0.843-0.187,1.253-0.277c0.416-0.053,0.824-0.106,1.224-0.157
	c1.594-0.242,3.084-0.307,4.395-0.437c1.315-0.062,2.464-0.116,3.409-0.161c0.945-0.012,1.689,0.006,2.197,0.005
	c0.508,0.002,0.779,0.003,0.779,0.003S273.979,137.629,273.473,137.598z M274.243,137.983c-0.029,0.216-0.102,0.538-0.321,0.882
	c-0.22,0.339-0.565,0.703-1.06,0.973c-0.495,0.261-1.131,0.406-1.802,0.608c-0.69,0.148-1.433,0.317-2.236,0.437
	c-0.796,0.145-1.647,0.256-2.524,0.392c-0.878,0.13-1.785,0.278-2.708,0.437c-0.918,0.181-1.855,0.349-2.778,0.599
	c-0.928,0.22-1.835,0.535-2.723,0.851c-0.434,0.186-0.865,0.371-1.291,0.553c-0.417,0.2-0.811,0.441-1.207,0.655
	c-0.404,0.202-0.751,0.483-1.102,0.741c-0.343,0.267-0.71,0.488-0.987,0.801c-0.292,0.293-0.575,0.579-0.85,0.855
	c-0.263,0.285-0.458,0.612-0.676,0.897c-0.197,0.3-0.438,0.555-0.569,0.858c-0.141,0.293-0.276,0.573-0.403,0.837
	c-0.123,0.264-0.252,0.504-0.344,0.736c-0.072,0.241-0.137,0.462-0.197,0.662c-0.115,0.399-0.206,0.713-0.268,0.926
	c-0.061,0.213-0.093,0.327-0.093,0.327s0.042-0.111,0.122-0.319c0.078-0.207,0.193-0.512,0.339-0.898
	c0.071-0.193,0.15-0.407,0.236-0.64c0.106-0.224,0.25-0.453,0.386-0.704c0.141-0.25,0.29-0.516,0.446-0.793
	c0.143-0.287,0.394-0.524,0.597-0.807c0.224-0.269,0.422-0.578,0.689-0.843c0.276-0.256,0.562-0.52,0.855-0.792
	c0.273-0.294,0.637-0.498,0.975-0.746c0.345-0.239,0.685-0.501,1.084-0.686c0.389-0.2,0.771-0.427,1.179-0.614
	c0.417-0.17,0.839-0.342,1.264-0.516c0.869-0.302,1.756-0.604,2.672-0.815c0.904-0.252,1.831-0.424,2.739-0.609
	c0.912-0.173,1.813-0.335,2.688-0.48c0.873-0.161,1.721-0.296,2.521-0.466c0.802-0.152,1.552-0.354,2.244-0.533
	c0.679-0.234,1.311-0.42,1.823-0.734c0.505-0.319,0.844-0.728,1.049-1.095c0.2-0.376,0.248-0.711,0.26-0.933
	c0-0.224-0.023-0.34-0.023-0.34S274.262,137.765,274.243,137.983z M276.289,141.534c-0.06,0.17-0.182,0.403-0.369,0.679
	c-0.089,0.14-0.223,0.269-0.347,0.421c-0.157,0.12-0.299,0.286-0.504,0.388c-0.382,0.243-0.875,0.41-1.431,0.465
	c-0.555,0.059-1.168,0.021-1.802-0.108c-0.645-0.107-1.262-0.363-1.991-0.53c-0.357-0.09-0.721-0.181-1.088-0.272
	c-0.372-0.064-0.753-0.091-1.135-0.139c-0.383-0.032-0.768-0.099-1.156-0.104l-1.167,0.004c-0.782-0.022-1.554,0.085-2.316,0.168
	c-0.765,0.059-1.5,0.236-2.212,0.387c-0.355,0.083-0.708,0.145-1.045,0.241c-0.334,0.109-0.66,0.215-0.978,0.318
	c-0.633,0.211-1.238,0.392-1.757,0.662c-0.513,0.242-1,0.472-1.435,0.677c-0.405,0.243-0.746,0.476-1.031,0.656
	c-0.282,0.186-0.503,0.332-0.654,0.431c-0.149,0.1-0.23,0.153-0.23,0.153s0.086-0.045,0.247-0.129
	c0.16-0.084,0.394-0.208,0.692-0.364c0.297-0.157,0.651-0.359,1.068-0.566c0.443-0.173,0.939-0.365,1.46-0.568
	c0.522-0.239,1.128-0.387,1.759-0.563c0.315-0.09,0.639-0.183,0.97-0.278c0.333-0.083,0.684-0.131,1.034-0.2
	c0.703-0.133,1.424-0.293,2.175-0.334c0.746-0.075,1.502-0.175,2.263-0.146l1.139-0.014c0.378,0.001,0.75,0.064,1.122,0.092
	c0.371,0.039,0.743,0.057,1.103,0.111c0.355,0.081,0.705,0.161,1.05,0.24c0.684,0.128,1.377,0.382,2.047,0.468
	c0.669,0.102,1.32,0.111,1.911,0.018c0.592-0.088,1.115-0.313,1.501-0.606c0.208-0.126,0.349-0.314,0.501-0.453
	c0.119-0.171,0.245-0.316,0.326-0.467c0.164-0.302,0.263-0.548,0.308-0.726c0.055-0.172,0.084-0.264,0.084-0.264
	S276.362,141.368,276.289,141.534z M270.808,140.534c0.042,0.012,0.102,0.028,0.178,0.05c0.078,0.018,0.171,0.041,0.279,0.066
	c0.107,0.026,0.228,0.056,0.361,0.078c0.133,0.024,0.276,0.05,0.429,0.077c0.151,0.023,0.312,0.049,0.476,0.076
	c0.165,0.021,0.336,0.043,0.509,0.065c0.174,0.018,0.351,0.032,0.524,0.064c0.175,0.021,0.351,0.042,0.523,0.063
	c0.173,0.017,0.343,0.032,0.508,0.047c0.167,0.007,0.327,0.021,0.475,0.05c0.151,0.019,0.293,0.037,0.425,0.053
	c0.132,0.017,0.255,0.025,0.366,0.031c0.11,0.008,0.206,0.014,0.285,0.019c0.081,0.002,0.144,0.004,0.187,0.005
	c0.043,0,0.067,0.001,0.067,0.001s-0.021-0.01-0.058-0.029c-0.039-0.018-0.095-0.045-0.167-0.079
	c-0.073-0.031-0.162-0.069-0.263-0.112c-0.102-0.044-0.217-0.094-0.346-0.139c-0.129-0.046-0.269-0.095-0.417-0.148
	c-0.148-0.053-0.309-0.091-0.475-0.124c-0.167-0.031-0.339-0.063-0.515-0.095c-0.176-0.027-0.355-0.055-0.534-0.083
	c-0.18-0.026-0.359-0.035-0.537-0.046c-0.177-0.007-0.352-0.013-0.52-0.019c-0.169-0.001-0.333-0.003-0.487-0.004
	c-0.154,0.006-0.301,0.012-0.435,0.017c-0.134,0.005-0.258,0.019-0.369,0.031c-0.109,0.011-0.206,0.021-0.285,0.03
	c-0.079,0.011-0.141,0.02-0.184,0.026c-0.043,0.007-0.065,0.01-0.065,0.01S270.767,140.521,270.808,140.534z M274.658,143.285
	c-0.055,0.151-0.177,0.354-0.353,0.59c-0.192,0.222-0.451,0.473-0.821,0.639c-0.369,0.164-0.821,0.252-1.32,0.264
	c-0.5,0.013-1.044-0.049-1.614-0.167c-0.577-0.123-1.185-0.251-1.814-0.385c-0.63-0.135-1.289-0.254-1.959-0.373
	c-0.667-0.13-1.358-0.201-2.047-0.286c-0.686-0.102-1.388-0.081-2.07-0.119c-0.684-0.035-1.359,0.069-2.01,0.095
	c-0.652,0.037-1.266,0.217-1.855,0.31c-0.593,0.087-1.119,0.309-1.616,0.461c-0.489,0.178-0.956,0.286-1.325,0.498
	c-0.378,0.186-0.708,0.348-0.979,0.481c-0.269,0.136-0.48,0.242-0.624,0.315c-0.144,0.073-0.22,0.112-0.22,0.112
	s0.081-0.03,0.233-0.085c0.151-0.057,0.373-0.14,0.655-0.245c0.28-0.108,0.62-0.239,1.009-0.389c0.38-0.175,0.854-0.241,1.342-0.388
	c0.497-0.122,1.02-0.311,1.605-0.363c0.58-0.068,1.181-0.221,1.818-0.231c0.636-0.01,1.291-0.097,1.959-0.046
	c0.667,0.044,1.348,0.028,2.023,0.134c0.677,0.078,1.355,0.14,2.019,0.263c0.665,0.102,1.32,0.204,1.953,0.325
	c0.637,0.109,1.252,0.215,1.836,0.315c0.593,0.087,1.169,0.122,1.699,0.078c0.53-0.042,1.014-0.182,1.395-0.396
	c0.384-0.215,0.637-0.508,0.814-0.756c0.156-0.266,0.255-0.482,0.295-0.641c0.049-0.154,0.075-0.236,0.075-0.236
	S274.725,143.138,274.658,143.285z M271.229,145.316c-0.031,0.06-0.069,0.133-0.114,0.22c-0.065,0.071-0.14,0.153-0.223,0.245
	c-0.174,0.174-0.441,0.316-0.766,0.412c-0.334,0.065-0.718,0.103-1.143,0.061c-0.422-0.023-0.879-0.118-1.356-0.232
	c-0.478-0.115-0.976-0.27-1.49-0.439c-0.513-0.16-1.047-0.371-1.623-0.501c-0.563-0.122-1.126-0.276-1.708-0.372
	c-0.577-0.108-1.157-0.202-1.737-0.252c-0.575-0.08-1.152-0.065-1.705-0.082c-0.553,0.012-1.088,0.074-1.592,0.121
	c-0.498,0.103-0.971,0.18-1.398,0.287c-0.403,0.127-0.794,0.251-1.146,0.363c-0.337,0.116-0.617,0.256-0.854,0.351
	c-0.234,0.103-0.417,0.184-0.542,0.239c-0.125,0.056-0.191,0.085-0.191,0.085s0.07-0.02,0.202-0.058
	c0.131-0.039,0.324-0.095,0.567-0.167c0.245-0.069,0.534-0.177,0.878-0.256c0.354-0.077,0.749-0.163,1.154-0.251
	c0.424-0.077,0.89-0.121,1.377-0.188c0.492-0.023,1.01-0.059,1.545-0.045c0.536,0.032,1.089,0.032,1.649,0.125
	c0.562,0.055,1.128,0.152,1.694,0.265c0.569,0.087,1.131,0.234,1.688,0.349c0.545,0.107,1.069,0.296,1.602,0.447
	c0.529,0.148,1.045,0.282,1.545,0.378c0.501,0.084,0.98,0.152,1.431,0.147c0.449,0.015,0.864-0.069,1.214-0.18
	c0.344-0.14,0.616-0.327,0.782-0.531c0.075-0.107,0.142-0.203,0.2-0.286c0.034-0.094,0.063-0.175,0.087-0.24
	c0.046-0.128,0.071-0.197,0.071-0.197S271.292,145.194,271.229,145.316z M250.292,152.002c0.122-0.005,0.301-0.013,0.529-0.024
	c0.229-0.015,0.507-0.033,0.826-0.054c0.322-0.016,0.685-0.041,1.068-0.125c0.386-0.072,0.805-0.151,1.248-0.234
	c0.445-0.082,0.9-0.207,1.375-0.324c0.472-0.126,0.959-0.257,1.455-0.39c0.489-0.141,0.987-0.284,1.484-0.428
	c0.498-0.152,0.996-0.305,1.486-0.455c0.482-0.155,0.955-0.289,1.416-0.399c0.46-0.109,0.907-0.198,1.333-0.233
	c0.426-0.05,0.83-0.049,1.199-0.009c0.367,0.044,0.703,0.114,0.992,0.212c0.291,0.098,0.53,0.221,0.722,0.337
	c0.203,0.1,0.33,0.227,0.434,0.292c0.1,0.072,0.153,0.11,0.153,0.11s-0.042-0.049-0.123-0.142c-0.086-0.085-0.188-0.243-0.37-0.388
	c-0.175-0.155-0.4-0.329-0.691-0.487c-0.287-0.161-0.638-0.305-1.038-0.397c-0.399-0.089-0.842-0.139-1.308-0.137
	c-0.467,0.002-0.952,0.061-1.448,0.138c-0.492,0.094-0.994,0.211-1.492,0.347c-0.491,0.141-0.989,0.283-1.487,0.427
	c-0.499,0.153-0.997,0.307-1.488,0.458c-0.486,0.155-0.964,0.308-1.427,0.455c-0.46,0.152-0.904,0.312-1.331,0.425
	c-0.424,0.13-0.826,0.252-1.195,0.366c-0.37,0.125-0.712,0.211-1.018,0.283c-0.306,0.075-0.574,0.141-0.794,0.195
	c-0.221,0.059-0.395,0.105-0.514,0.136c-0.119,0.033-0.182,0.051-0.182,0.051S250.17,152.006,250.292,152.002z M265.996,150.447
	c-0.022,0.109-0.004,0.277-0.074,0.481c-0.077,0.414-0.343,1.017-0.965,1.498c-0.603,0.499-1.5,0.875-2.565,1.159
	c-1.065,0.291-2.301,0.509-3.653,0.743c-1.368,0.208-2.866,0.675-4.314,1.319c-1.464,0.632-2.931,1.448-4.479,2.103
	c-1.571,0.7-3.188,1.342-4.898,1.706c-0.431,0.078-0.863,0.156-1.296,0.235l-1.363,0.205c-0.917,0.117-1.795,0.323-2.696,0.384
	l-1.343,0.139l-1.359,0.064c-0.916,0.047-1.828,0.095-2.733,0.142c-1.841,0.152-3.602,0.497-5.292,0.837
	c-1.688,0.354-3.306,0.717-4.846,1.019c-1.539,0.3-2.997,0.574-4.354,0.727c-1.355,0.176-2.604,0.266-3.714,0.316
	c-1.11,0.023-2.082,0.019-2.878-0.048c-0.802-0.022-1.423-0.125-1.851-0.17c-0.428-0.049-0.656-0.075-0.656-0.075
	s0.225,0.046,0.646,0.134c0.422,0.08,1.039,0.234,1.839,0.322c0.798,0.12,1.775,0.19,2.899,0.242c1.125,0.027,2.398,0.022,3.778-0.1
	c1.383-0.098,2.868-0.313,4.434-0.548c1.562-0.259,3.197-0.576,4.884-0.878c1.685-0.309,3.424-0.616,5.186-0.73
	c0.898-0.04,1.803-0.081,2.711-0.122l1.382-0.057l1.393-0.135c0.931-0.071,1.845-0.29,2.738-0.409l1.339-0.21
	c0.46-0.087,0.918-0.173,1.375-0.259c1.816-0.419,3.507-1.132,5.061-1.857c1.599-0.735,3.018-1.583,4.43-2.242
	c1.407-0.693,2.752-1.178,4.097-1.444c1.347-0.291,2.583-0.597,3.653-0.969c1.069-0.361,1.98-0.814,2.585-1.385
	c0.616-0.564,0.84-1.22,0.883-1.646c0.051-0.212,0.019-0.382,0.031-0.492c0.001-0.111,0.002-0.168,0.002-0.168
	S266.007,150.336,265.996,150.447z M279,195h-74v1h74V195z M208.226,204.328c0-3.68,0.02-2.355,0.01-4.332
	c0-0.397,0.031-0.51,0.112-0.51s0.255,0.224,0.356,0.326c0.153,0.173,1.672,1.815,3.242,3.497c1.009,1.081,2.121,2.323,2.446,2.659
	l-0.112-5.178c-0.01-0.661-0.081-0.886-0.397-0.968c-0.184-0.041-0.347-0.051-0.438-0.051c-0.112,0-0.143-0.03-0.143-0.072
	c0-0.061,0.081-0.071,0.204-0.071c0.459,0,0.948,0.031,1.06,0.031c0.112,0,0.449-0.031,0.867-0.031c0.113,0,0.184,0.01,0.184,0.071
	c0,0.042-0.042,0.062-0.112,0.072c-0.082,0.01-0.143,0.021-0.265,0.041c-0.286,0.062-0.356,0.214-0.356,0.917l-0.021,5.954
	c0,0.673-0.02,0.725-0.092,0.725c-0.081,0-0.204-0.113-0.744-0.653c-0.112-0.101-1.58-1.601-2.661-2.762
	c-1.182-1.274-2.334-2.559-2.661-2.926l0.133,4.882c0.021,0.836,0.123,1.101,0.398,1.184c0.194,0.05,0.417,0.061,0.509,0.061
	c0.051,0,0.082,0.02,0.082,0.061c0,0.061-0.061,0.082-0.184,0.082c-0.582,0-0.989-0.031-1.081-0.031
	c-0.092,0-0.521,0.031-0.979,0.031c-0.102,0-0.164-0.009-0.164-0.082c0-0.041,0.031-0.061,0.082-0.061
	c0.082,0,0.265-0.011,0.418-0.061c0.254-0.072,0.306-0.368,0.306-1.296V204.328z M218.938,204.328c-0.051,0-0.081,0.03-0.102,0.082
	l-0.611,1.805c-0.092,0.255-0.143,0.5-0.143,0.683c0,0.204,0.194,0.296,0.367,0.296c0.031,0,0.062,0,0.092,0
	c0.102,0,0.132,0.02,0.132,0.061c0,0.061-0.091,0.082-0.183,0.082c-0.245,0-0.652-0.031-0.765-0.031s-0.673,0.031-1.152,0.031
	c-0.133,0-0.194-0.021-0.194-0.082c0-0.041,0.051-0.061,0.144-0.061c0.071,0,0.163-0.011,0.244-0.021
	c0.469-0.061,0.673-0.447,0.856-0.958l2.314-6.331c0.123-0.336,0.163-0.397,0.225-0.397s0.102,0.051,0.224,0.366
	c0.153,0.388,1.754,4.598,2.375,6.148c0.367,0.907,0.663,1.07,0.876,1.132c0.153,0.05,0.316,0.061,0.398,0.061
	c0.061,0,0.112,0.01,0.112,0.061c0,0.061-0.091,0.082-0.204,0.082c-0.153,0-0.897,0-1.6-0.021c-0.194-0.01-0.306-0.01-0.306-0.071
	c0-0.04,0.03-0.061,0.072-0.072c0.061-0.02,0.122-0.111,0.061-0.275l-0.948-2.507c-0.02-0.042-0.041-0.062-0.091-0.062H218.938z
	 M220.998,203.961c0.051,0,0.051-0.031,0.041-0.072l-0.969-2.751c-0.051-0.154-0.102-0.154-0.152,0l-0.897,2.751
	c-0.021,0.051,0,0.072,0.031,0.072H220.998z M225.86,202.584c0-1.589,0-1.875-0.02-2.202c-0.021-0.347-0.123-0.519-0.347-0.57
	c-0.112-0.031-0.245-0.041-0.315-0.041c-0.041,0-0.083-0.021-0.083-0.061c0-0.062,0.052-0.082,0.164-0.082
	c0.336,0,0.979,0.031,1.03,0.031c0.05,0,0.693-0.031,1-0.031c0.111,0,0.163,0.02,0.163,0.082c0,0.041-0.041,0.061-0.082,0.061
	c-0.071,0-0.132,0.01-0.255,0.031c-0.275,0.05-0.357,0.224-0.377,0.58c-0.02,0.327-0.02,0.612-0.02,2.202v1.796
	c0,0.978,0,1.783,0.051,2.212c0.03,0.295,0.092,0.519,0.398,0.56c0.142,0.02,0.357,0.041,0.417,0.041
	c0.092,0,0.122,0.03,0.122,0.061c0,0.051-0.041,0.082-0.153,0.082c-0.56,0-1.213-0.031-1.264-0.031
	c-0.051,0-0.693,0.031-0.999,0.031c-0.112,0-0.163-0.021-0.163-0.082c0-0.03,0.021-0.061,0.112-0.061
	c0.061,0,0.173-0.011,0.265-0.031c0.204-0.04,0.265-0.275,0.306-0.57c0.051-0.429,0.051-1.234,0.051-2.212V202.584z
	 M231.456,204.399c0,1.498,0.041,2.151,0.224,2.335c0.164,0.162,0.428,0.234,1.224,0.234c0.54,0,0.989-0.01,1.233-0.306
	c0.133-0.164,0.234-0.418,0.265-0.611c0.01-0.083,0.031-0.132,0.092-0.132c0.051,0,0.062,0.04,0.062,0.152s-0.071,0.725-0.153,1.02
	c-0.071,0.235-0.102,0.275-0.642,0.275c-0.876,0-1.743-0.061-2.732-0.061c-0.316,0-0.622,0.031-0.999,0.031
	c-0.112,0-0.163-0.021-0.163-0.082c0-0.03,0.021-0.061,0.082-0.061c0.091,0,0.214-0.021,0.306-0.041
	c0.203-0.041,0.254-0.265,0.295-0.56c0.051-0.429,0.051-1.234,0.051-2.212v-1.796c0-1.589,0-1.875-0.021-2.202
	c-0.02-0.347-0.102-0.509-0.438-0.58c-0.082-0.021-0.254-0.031-0.347-0.031c-0.041,0-0.081-0.021-0.081-0.061
	c0-0.062,0.051-0.082,0.164-0.082c0.458,0,1.101,0.031,1.151,0.031c0.05,0,0.795-0.031,1.101-0.031c0.112,0,0.163,0.02,0.163,0.082
	c0,0.041-0.041,0.061-0.082,0.061c-0.071,0-0.213,0.01-0.337,0.031c-0.295,0.05-0.376,0.224-0.397,0.58
	c-0.02,0.327-0.02,0.612-0.02,2.202V204.399z M236.237,207.203c-0.143-0.071-0.154-0.112-0.154-0.388
	c0-0.51,0.041-0.917,0.052-1.081c0.01-0.112,0.031-0.164,0.081-0.164c0.062,0,0.072,0.031,0.072,0.113c0,0.091,0,0.235,0.031,0.377
	c0.153,0.753,0.826,1.039,1.509,1.039c0.978,0,1.458-0.702,1.458-1.355c0-0.703-0.296-1.111-1.172-1.835l-0.458-0.377
	c-1.081-0.886-1.326-1.518-1.326-2.212c0-1.091,0.816-1.834,2.11-1.834c0.397,0,0.693,0.042,0.948,0.103
	c0.194,0.04,0.276,0.049,0.357,0.049c0.082,0,0.102,0.021,0.102,0.072c0,0.051-0.041,0.388-0.041,1.08
	c0,0.164-0.021,0.235-0.071,0.235c-0.061,0-0.071-0.051-0.082-0.133c-0.01-0.123-0.071-0.398-0.133-0.51
	c-0.061-0.111-0.336-0.54-1.274-0.54c-0.703,0-1.254,0.439-1.254,1.183c0,0.582,0.265,0.947,1.244,1.712l0.286,0.225
	c1.203,0.948,1.488,1.58,1.488,2.396c0,0.418-0.163,1.193-0.867,1.692c-0.438,0.306-0.988,0.429-1.539,0.429
	C237.123,207.478,236.655,207.407,236.237,207.203z M246.239,207.203c-0.143-0.071-0.153-0.112-0.153-0.388
	c0-0.51,0.041-0.917,0.051-1.081c0.01-0.112,0.031-0.164,0.082-0.164c0.061,0,0.072,0.031,0.072,0.113c0,0.091,0,0.235,0.03,0.377
	c0.152,0.753,0.826,1.039,1.509,1.039c0.979,0,1.458-0.702,1.458-1.355c0-0.703-0.296-1.111-1.173-1.835l-0.458-0.377
	c-1.081-0.886-1.325-1.518-1.325-2.212c0-1.091,0.815-1.834,2.11-1.834c0.397,0,0.693,0.042,0.949,0.103
	c0.193,0.04,0.275,0.049,0.356,0.049c0.082,0,0.102,0.021,0.102,0.072c0,0.051-0.041,0.388-0.041,1.08
	c0,0.164-0.021,0.235-0.071,0.235c-0.061,0-0.071-0.051-0.081-0.133c-0.011-0.123-0.072-0.398-0.133-0.51
	c-0.062-0.111-0.336-0.54-1.274-0.54c-0.703,0-1.254,0.439-1.254,1.183c0,0.582,0.265,0.947,1.243,1.712l0.286,0.225
	c1.203,0.948,1.488,1.58,1.488,2.396c0,0.418-0.163,1.193-0.867,1.692c-0.438,0.306-0.989,0.429-1.539,0.429
	C247.125,207.478,246.657,207.407,246.239,207.203z M258.195,202.86c0.032,0,0.062-0.01,0.062-0.061v-0.215
	c0-1.589,0-1.875-0.02-2.202c-0.02-0.347-0.103-0.509-0.439-0.58c-0.081-0.021-0.254-0.031-0.346-0.031
	c-0.04,0-0.082-0.021-0.082-0.061c0-0.062,0.051-0.082,0.163-0.082c0.458,0,1.102,0.031,1.152,0.031c0.05,0,0.693-0.031,0.999-0.031
	c0.112,0,0.164,0.02,0.164,0.082c0,0.041-0.042,0.061-0.082,0.061c-0.071,0-0.132,0.01-0.255,0.031
	c-0.275,0.05-0.356,0.224-0.377,0.58c-0.02,0.327-0.02,0.612-0.02,2.202v1.796c0,0.978,0,1.783,0.051,2.212
	c0.03,0.295,0.091,0.519,0.397,0.56c0.143,0.02,0.367,0.041,0.458,0.041c0.062,0,0.083,0.03,0.083,0.061
	c0,0.051-0.051,0.082-0.164,0.082c-0.56,0-1.203-0.031-1.253-0.031c-0.051,0-0.694,0.031-0.999,0.031
	c-0.112,0-0.164-0.021-0.164-0.082c0-0.03,0.021-0.061,0.082-0.061c0.092,0,0.215-0.021,0.307-0.041
	c0.204-0.041,0.255-0.265,0.295-0.56c0.051-0.429,0.051-1.234,0.051-2.212v-1.071c0-0.041-0.03-0.062-0.062-0.062h-4.322
	c-0.031,0-0.061,0.01-0.061,0.062v1.071c0,0.978,0,1.783,0.051,2.212c0.031,0.295,0.092,0.519,0.398,0.56
	c0.143,0.02,0.367,0.041,0.458,0.041c0.061,0,0.082,0.03,0.082,0.061c0,0.051-0.051,0.082-0.164,0.082
	c-0.561,0-1.203-0.031-1.254-0.031c-0.051,0-0.693,0.031-0.999,0.031c-0.112,0-0.163-0.021-0.163-0.082
	c0-0.03,0.021-0.061,0.082-0.061c0.092,0,0.214-0.021,0.305-0.041c0.205-0.041,0.255-0.265,0.296-0.56
	c0.051-0.429,0.051-1.234,0.051-2.212v-1.796c0-1.589,0-1.875-0.021-2.202c-0.02-0.347-0.102-0.509-0.438-0.58
	c-0.081-0.021-0.254-0.031-0.346-0.031c-0.041,0-0.082-0.021-0.082-0.061c0-0.062,0.051-0.082,0.163-0.082
	c0.459,0,1.102,0.031,1.152,0.031c0.051,0,0.693-0.031,0.999-0.031c0.112,0,0.163,0.02,0.163,0.082c0,0.041-0.041,0.061-0.081,0.061
	c-0.071,0-0.133,0.01-0.255,0.031c-0.275,0.05-0.357,0.224-0.377,0.58c-0.021,0.327-0.021,0.612-0.021,2.202v0.215
	c0,0.051,0.03,0.061,0.061,0.061H258.195z M261.814,203.471c0-1.651,1.203-3.985,4.017-3.985c2.293,0,4.006,1.448,4.006,3.823
	c0,2.283-1.611,4.169-4.067,4.169C262.976,207.478,261.814,205.308,261.814,203.471z M268.858,203.594
	c0-2.447-1.488-3.762-3.098-3.762c-1.704,0-2.978,1.122-2.978,3.354c0,2.375,1.428,3.905,3.262,3.905
	C266.962,207.091,268.858,206.56,268.858,203.594z M272.558,202.584c0-1.589,0-1.875-0.021-2.202
	c-0.02-0.347-0.102-0.509-0.438-0.58c-0.081-0.021-0.255-0.031-0.347-0.031c-0.041,0-0.081-0.021-0.081-0.061
	c0-0.062,0.049-0.082,0.163-0.082c0.459,0,1.07,0.031,1.151,0.031c0.224,0,0.815-0.031,1.285-0.031c1.274,0,1.733,0.428,1.896,0.581
	c0.225,0.215,0.51,0.673,0.51,1.336c0,1.325-1.061,2.303-2.508,2.303c-0.051,0-0.164,0-0.214-0.009
	c-0.051,0-0.112-0.021-0.112-0.071c0-0.083,0.061-0.093,0.275-0.093c0.989,0,1.763-0.673,1.763-1.744c0-0.254-0.03-0.937-0.57-1.487
	c-0.541-0.551-1.163-0.51-1.397-0.51c-0.174,0-0.346,0.02-0.438,0.061c-0.061,0.02-0.082,0.092-0.082,0.193v4.191
	c0,0.978,0,1.783,0.051,2.212c0.03,0.295,0.092,0.519,0.398,0.56c0.142,0.02,0.366,0.041,0.458,0.041
	c0.062,0,0.082,0.03,0.082,0.061c0,0.051-0.051,0.082-0.164,0.082c-0.56,0-1.202-0.031-1.253-0.031c-0.032,0-0.673,0.031-0.98,0.031
	c-0.111,0-0.162-0.021-0.162-0.082c0-0.03,0.02-0.061,0.081-0.061c0.092,0,0.214-0.021,0.307-0.041
	c0.204-0.041,0.254-0.265,0.295-0.56c0.051-0.429,0.051-1.234,0.051-2.212V202.584z"/>
<path fill="#09CCB4" d="M210.031,173.125c-0.327,0-0.626,0.245-0.626,0.599c0,0.3,0.246,0.518,0.518,0.572
	c1.39,0.272,2.343,1.39,2.888,3.433c-3.105,2.778-5.258,8.364-5.258,11.688c0,2.37,1.09,3.542,2.479,3.542
	c2.807,0,4.55-4.876,4.55-10.026c0-1.58-0.109-3.432-0.436-4.822c0.954-0.898,2.016-1.443,3.106-1.443
	c0.899,0,1.635,0.354,2.207,0.926c0.571,0.627,0.98,1.417,1.199,2.398c-2.207,2.942-3.76,7.274-3.76,10.053
	c0,1.172,0.218,1.935,0.654,2.398c0.3,0.245,0.682,0.409,1.117,0.409c2.452,0,3.733-4.741,3.733-9.073
	c0-1.39-0.164-2.67-0.437-3.542c0.409-0.572,2.235-3.106,4.169-3.106c2.425,0,3.051,3.106,3.051,5.558
	c0,3.378-0.98,7.22-2.289,9.073c-0.054,0.109-0.082,0.218-0.082,0.354c0,0.354,0.245,0.599,0.573,0.599
	c0.19,0,0.409-0.081,0.518-0.245c1.443-2.097,2.506-6.157,2.506-9.781c0-1.988-0.327-4.223-1.689-5.64
	c-0.681-0.708-1.553-1.035-2.534-1.035c-1.798,0-3.433,1.335-4.659,2.834c-0.245-0.927-1.362-3.324-4.196-3.324
	c-1.28,0-2.452,0.518-3.515,1.308c-0.626-1.88-1.716-3.378-3.65-3.705H210.031z M213.355,182.933c0,4.687-1.526,8.909-3.297,8.909
	c-1.28,0-1.308-2.07-1.308-2.425c0-3.024,1.88-7.574,4.359-10.462C213.247,180.126,213.355,181.407,213.355,182.933z
	 M221.175,184.05c-0.055,4.332-1.335,7.71-2.479,7.71c-0.545,0-0.599-1.335-0.599-1.717c0-2.234,1.171-5.667,2.915-8.609
	C221.147,182.334,221.175,183.151,221.175,184.05z M236.595,183.151c-2.997,0-4.958,3.95-4.958,6.784
	c0,2.043,1.117,2.861,2.207,2.861c1.962,0,2.833-1.825,2.833-2.289c0-0.327-0.218-0.599-0.572-0.599
	c-0.218,0-0.436,0.136-0.518,0.354c-0.273,0.736-0.817,1.39-1.553,1.39c-0.708,0-1.171-0.709-1.171-1.717
	c0-2.479,1.553-5.639,3.624-5.639c0.708,0,1.417,0.49,1.417,1.798c0,0.954-0.19,2.016-0.354,3.024c-0.136,0.981-0.3,1.744-0.3,2.316
	c0,0.545,0.164,1.308,0.763,1.308c0.327,0,0.626-0.272,0.626-0.572c0-0.136-0.055-0.218-0.109-0.327
	c-0.027-0.082-0.055-0.19-0.055-0.354c0-0.545,0.164-1.472,0.272-2.179c0.191-1.036,0.354-2.234,0.354-3.27
	C239.102,184.159,238.148,183.151,236.595,183.151z M241.908,188.736c-1.035,0-1.879,0.817-1.879,1.961
	c0,1.362,1.417,2.262,2.969,2.262c2.071,0,3.27-1.253,3.27-2.943c0-1.389-0.899-2.18-2.234-2.969
	c-1.09-0.654-1.335-0.981-1.335-1.499c0-0.708,0.491-1.253,1.362-1.253c0.708,0,1.09,0.599,1.171,0.872
	c0.055,0.218,0.327,0.354,0.491,0.354c0.354,0,0.626-0.272,0.626-0.626c0-0.463-0.626-1.635-2.261-1.635
	c-1.689,0-2.588,1.171-2.588,2.289c0,1.362,1.117,2.098,1.989,2.561c1.226,0.654,1.553,1.417,1.553,2.071
	c0,1.226-1.035,1.798-2.016,1.798s-1.771-0.654-1.771-1.308c0-0.382,0.136-0.79,0.654-0.79c0.191,0,0.272,0.054,0.436,0.082
	c0.164,0.027,0.545-0.055,0.545-0.518C242.889,188.899,242.398,188.736,241.908,188.736z M248.692,192.687
	c0.354,0,0.626-0.272,0.572-0.599c-0.381-3.025,1.935-7.575,3.706-7.575c0.681,0,1.035,0.708,1.035,2.779
	c0,1.744-0.381,3.597-0.6,4.441c0,0.054-0.027,0.109-0.027,0.163c0,0.3,0.272,0.6,0.626,0.6c0.272,0,0.491-0.19,0.572-0.463
	c0.083-0.246,0.654-2.479,0.654-4.741c0-1.171-0.027-4.032-2.18-4.032c-1.471,0-3.133,1.662-3.95,4.386
	c0.326-2.615,0.763-4.55,1.008-5.53c2.725-0.682,5.53-2.725,5.53-4.932c0-1.117-0.681-1.825-1.852-1.825
	c-2.098,0-3.787,3.079-4.632,5.776c-0.3,0.055-0.681,0.082-1.035,0.082h-0.518c-0.299-0.054-0.572,0.218-0.572,0.545
	c0,0.626,0.572,0.599,1.063,0.599c0.246,0,0.545,0,0.736-0.027c-0.273,1.144-0.899,4.631-0.899,7.628
	c0,0.899,0.055,1.417,0.191,2.234C248.174,192.468,248.392,192.687,248.692,192.687z M253.759,176.476
	c0.491,0,0.682,0.3,0.682,0.708c0,1.335-1.826,2.916-3.951,3.651C251.334,178.274,252.779,176.476,253.759,176.476z
	 M261.578,183.151c-2.997,0-4.958,3.95-4.958,6.784c0,2.043,1.117,2.861,2.207,2.861c1.962,0,2.833-1.825,2.833-2.289
	c0-0.327-0.218-0.599-0.572-0.599c-0.218,0-0.436,0.136-0.518,0.354c-0.272,0.736-0.817,1.39-1.553,1.39
	c-0.708,0-1.171-0.709-1.171-1.717c0-2.479,1.553-5.639,3.624-5.639c0.708,0,1.417,0.49,1.417,1.798
	c0,0.954-0.191,2.016-0.354,3.024c-0.136,0.981-0.299,1.744-0.299,2.316c0,0.545,0.163,1.308,0.763,1.308
	c0.327,0,0.626-0.272,0.626-0.572c0-0.136-0.055-0.218-0.108-0.327c-0.028-0.082-0.055-0.19-0.055-0.354
	c0-0.545,0.164-1.472,0.272-2.179c0.191-1.036,0.354-2.234,0.354-3.27C264.085,184.159,263.131,183.151,261.578,183.151z
	 M269.316,181.38c0-0.19-0.082-0.354-0.218-0.463c-0.899-0.709-1.798-1.39-2.452-1.962c-0.137-0.108-0.408-0.354-0.654-0.545
	c-0.109-0.027-0.246-0.082-0.327-0.082c-0.272,0-0.49,0.164-0.49,0.463c0,0.272,0.109,0.518,0.545,0.845
	c0.735,0.544,2.043,1.607,2.697,2.125c0.19,0.136,0.354,0.163,0.49,0.163C269.125,181.925,269.316,181.707,269.316,181.38z
	 M272.236,188.736c-1.036,0-1.88,0.817-1.88,1.961c0,1.362,1.417,2.262,2.97,2.262c2.07,0,3.269-1.253,3.269-2.943
	c0-1.389-0.899-2.18-2.234-2.969c-1.09-0.654-1.335-0.981-1.335-1.499c0-0.708,0.491-1.253,1.363-1.253
	c0.708,0,1.09,0.599,1.171,0.872c0.055,0.218,0.327,0.354,0.49,0.354c0.354,0,0.627-0.272,0.627-0.626
	c0-0.463-0.627-1.635-2.262-1.635c-1.689,0-2.588,1.171-2.588,2.289c0,1.362,1.117,2.098,1.989,2.561
	c1.226,0.654,1.553,1.417,1.553,2.071c0,1.226-1.036,1.798-2.016,1.798c-0.981,0-1.771-0.654-1.771-1.308
	c0-0.382,0.136-0.79,0.654-0.79c0.19,0,0.272,0.054,0.436,0.082c0.163,0.027,0.544-0.055,0.544-0.518
	C273.216,188.899,272.726,188.736,272.236,188.736z"/>
</svg>
