<?xml version="1.0" encoding="utf-8"?>
<!-- Generator: Adobe Illustrator 16.0.0, SVG Export Plug-In . SVG Version: 6.00 Build 0)  -->
<!DOCTYPE svg PUBLIC "-//W3C//DTD SVG 1.1//EN" "http://www.w3.org/Graphics/SVG/1.1/DTD/svg11.dtd">
<svg version="1.1" id="Слой_1" xmlns="http://www.w3.org/2000/svg" xmlns:xlink="http://www.w3.org/1999/xlink" x="0px" y="0px"
	 width="52px" height="33px" viewBox="-164.5 181.5 52 33" enable-background="new -164.5 181.5 52 33" xml:space="preserve">
<path fill="#15E6CD" d="M-114.5,182.5c0.552,0,1,0.448,1,1v29c0,0.551-0.448,1-1,1h-48c-0.551,0-1-0.449-1-1v-29
	c0-0.552,0.449-1,1-1H-114.5 M-114.5,181.5h-48c-1.104,0-2,0.896-2,2v29c0,1.104,0.896,2,2,2h48c1.104,0,2-0.896,2-2v-29
	C-112.5,182.396-113.396,181.5-114.5,181.5L-114.5,181.5z M-151.792,195.504c-1.067,0-1.885,0.35-1.885,0.35l-0.226,1.366
	c0,0,0.675-0.279,1.696-0.279c0.58,0,1.003,0.065,1.003,0.546c0,0.291-0.051,0.399-0.051,0.399s-0.457-0.039-0.668-0.039
	c-1.346,0-2.76,0.584-2.76,2.349c0,1.391,0.927,1.709,1.503,1.709c1.098,0,1.572-0.727,1.596-0.727l-0.052,0.605h1.371l0.611-4.365
	C-149.655,195.564-151.242,195.504-151.792,195.504z M-152.561,200.575c-0.483,0-0.609-0.376-0.609-0.599
	c0-0.434,0.231-0.955,1.372-0.955c0.266,0.001,0.294,0.029,0.339,0.035C-151.429,199.325-151.623,200.575-152.561,200.575z
	 M-147.7,197.484c0,0.792,1.854,0.403,1.854,2.371c0,2.107-2.003,2.016-2.354,2.016c-1.306,0-1.709-0.182-1.746-0.193l0.208-1.387
	c0.002-0.012,0.655,0.242,1.383,0.242c0.419,0,0.963-0.041,0.963-0.553c0-0.765-1.948-0.582-1.948-2.396
	c0-1.602,1.167-2.07,2.319-2.07c0.889,0,1.436,0.125,1.436,0.125l-0.197,1.398c0,0-0.843-0.07-1.062-0.07
	C-147.398,196.968-147.7,197.092-147.7,197.484z M-144.006,199.896c-0.034,0.219,0.025,0.512,0.567,0.512
	c0.138,0,0.294-0.047,0.401-0.047l-0.195,1.348c-0.156,0.043-0.598,0.203-1.166,0.207c-0.725,0.008-1.24-0.407-1.24-1.342
	c0-0.63,0.884-5.809,0.918-5.842h1.556l-0.158,0.924h0.776l-0.198,1.491h-0.824L-144.006,199.896z M-138.003,199.242
	c0,0,0.205-1.027,0.205-1.445c0-1.045-0.51-2.318-2.218-2.318c-1.565,0.001-2.723,1.719-2.723,3.659
	c0,2.241,1.451,2.772,2.688,2.772c1.141,0,1.643-0.259,1.643-0.259l0.274-1.53c0,0-0.868,0.391-1.653,0.391
	c-1.67,0-1.378-1.27-1.378-1.27H-138.003z M-140.012,196.899c0.878,0,0.716,1.005,0.716,1.086h-1.727
	C-141.023,197.883-140.86,196.899-140.012,196.899z M-154.125,194.242l-1.228,7.549h-1.592l0.886-5.691l-2,5.691h-1.072
	l-0.139-5.691l-0.947,5.691h-1.501l1.245-7.549h2.27l0.08,4.633l1.533-4.633H-154.125z M-134.047,195.6
	c-0.207,0.429-0.389,0.822-0.579,1.838c-1.081-0.389-1.165,1.74-1.618,4.365h-1.597l0.971-6.145h1.448l-0.139,0.891
	c0,0,0.516-0.969,1.213-0.969C-134.144,195.578-134.047,195.6-134.047,195.6z M-131.167,200.369c0.523,0,1.287-0.389,1.287-0.389
	l-0.279,1.727c0,0-0.837,0.217-1.36,0.217c-1.857,0-2.8-1.304-2.8-3.281c0-2.981,1.748-4.569,3.542-4.569
	c0.811,0,1.753,0.388,1.753,0.388l-0.254,1.68c0,0-0.636-0.453-1.428-0.453c-1.059,0-2.009,1.029-2.009,2.9
	C-132.715,199.511-132.271,200.369-131.167,200.369z M-121.72,199.309c0,1.3,0.634,2.571,1.929,2.571c0.933,0,1.448-0.66,1.448-0.66
	l-0.068,0.563h1.514l1.189-7.537l-1.56,0.004l-0.336,2.12c0,0-0.585-0.825-1.503-0.825
	C-120.533,195.547-121.72,197.298-121.72,199.309z M-117.991,198.385c0,0.837-0.407,1.957-1.25,1.957
	c-0.56,0-0.823-0.479-0.823-1.231c0-1.229,0.542-2.04,1.226-2.04C-118.279,197.072-117.991,197.463-117.991,198.385z
	 M-126.567,195.504c-1.069,0-1.886,0.35-1.886,0.35l-0.227,1.366c0,0,0.676-0.279,1.696-0.279c0.58,0,1.004,0.065,1.004,0.546
	c0,0.291-0.053,0.399-0.053,0.399s-0.456-0.039-0.669-0.039c-1.345,0-2.758,0.584-2.758,2.349c0,1.391,0.928,1.709,1.502,1.709
	c1.097,0,1.571-0.727,1.596-0.727l-0.051,0.605h1.37l0.611-4.365C-124.43,195.564-126.017,195.504-126.567,195.504z
	 M-127.334,200.575c-0.484,0-0.609-0.376-0.609-0.599c0-0.434,0.231-0.955,1.371-0.955c0.265,0.001,0.293,0.029,0.339,0.035
	C-126.204,199.325-126.398,200.575-127.334,200.575z M-121.562,197.437c-1.08-0.39-1.163,1.741-1.618,4.365h-1.597l0.971-6.144
	h1.449l-0.139,0.89c0,0,0.517-0.968,1.214-0.968c0.203,0,0.299,0.02,0.299,0.02C-121.188,196.028-121.372,196.422-121.562,197.437z"
	/>
</svg>
