<svg xmlns="http://www.w3.org/2000/svg" xmlns:xlink="http://www.w3.org/1999/xlink" width="67" height="28" viewBox="0 0 67 28"><defs><path id="41wfa" d="M920.754 371.992a1.92 1.92 0 0 1 1.922 1.917 1.92 1.92 0 0 1-1.922 1.918 1.92 1.92 0 0 1-1.922-1.918 1.92 1.92 0 0 1 1.922-1.917zm10.736-.001a1.92 1.92 0 0 1 1.923 1.918 1.92 1.92 0 0 1-1.923 1.919 1.92 1.92 0 0 1-1.923-1.919c0-1.06.86-1.918 1.923-1.918zm10.735 0a1.92 1.92 0 0 1 1.923 1.918 1.92 1.92 0 0 1-1.923 1.919 1.92 1.92 0 0 1-1.923-1.919 1.92 1.92 0 0 1 1.923-1.918zm10.735 0a1.92 1.92 0 0 1 1.923 1.918 1.92 1.92 0 0 1-1.923 1.919 1.92 1.92 0 0 1-1.923-1.919c0-1.06.861-1.918 1.923-1.918zm-31.128 10.224h33.829v4.126h-33.829c-6.794 0-12.322-5.515-12.322-12.294v-.275c0-6.779 5.528-12.294 12.322-12.294h38.627c2.87 0 5.67 1.013 7.88 2.852l.435.363-.558-.108a9.13 9.13 0 0 0-6.398 1.108l-.046.028-.052-.008a8.15 8.15 0 0 0-1.261-.107h-38.627c-4.513 0-8.185 3.664-8.185 8.167v.275c0 4.503 3.672 8.167 8.185 8.167zm53.658-3.08v8.01c0 .76-.615 1.377-1.376 1.377h-15.3a1.38 1.38 0 0 1-1.377-1.377v-8.01c0-.76.454-1.373 1.015-1.373h1.013v-5.114c0-3.62 3.138-6.564 7-6.564 3.86 0 6.996 2.945 6.996 6.564v5.114h1.013c.563 0 1.015.612 1.016 1.373zm-7.303 3.647a1.72 1.72 0 0 0-1.723-1.717 1.72 1.72 0 1 0 0 3.438c.953 0 1.723-.772 1.723-1.72zm2.984-5.02v-5.114c0-2.356-2.114-4.274-4.707-4.274-2.594 0-4.703 1.92-4.703 4.274v5.114z"/></defs><g><g transform="translate(-909 -361)"><use fill="#17cfb9" xlink:href="#41wfa"/></g></g></svg>