<?xml version="1.0" encoding="utf-8"?>
<!-- Generator: Adobe Illustrator 16.0.0, SVG Export Plug-In . SVG Version: 6.00 Build 0)  -->
<!DOCTYPE svg PUBLIC "-//W3C//DTD SVG 1.1//EN" "http://www.w3.org/Graphics/SVG/1.1/DTD/svg11.dtd">
<svg version="1.1" id="Слой_1" xmlns="http://www.w3.org/2000/svg" xmlns:xlink="http://www.w3.org/1999/xlink" x="0px" y="0px"
	 width="46px" height="13px" viewBox="-164.5 181.5 46 13" enable-background="new -164.5 181.5 46 13" xml:space="preserve">
<path fill="#003087" d="M-155.107,182.897c-0.163-0.337-0.42-0.614-0.739-0.822c-0.333-0.21-0.725-0.357-1.174-0.445
	c-0.458-0.085-0.984-0.124-1.596-0.13l-2.822,0.002c-0.293,0.004-0.581,0.241-0.65,0.532l-1.899,8.534
	c-0.069,0.289,0.116,0.532,0.409,0.532h1.351c0.293,0,0.584-0.237,0.649-0.532l0.464-2.072c0.062-0.289,0.351-0.529,0.648-0.529
	h0.386c1.653-0.002,2.933-0.351,3.853-1.048c0.924-0.698,1.381-1.622,1.381-2.766C-154.848,183.652-154.928,183.231-155.107,182.897
	z M-158.022,185.685c-0.409,0.309-0.977,0.463-1.71,0.463h-0.33c-0.294,0-0.474-0.239-0.41-0.531l0.406-1.813
	c0.057-0.291,0.353-0.531,0.644-0.529l0.443-0.003c0.517,0,0.912,0.093,1.176,0.271c0.261,0.177,0.392,0.458,0.39,0.831
	C-157.406,184.94-157.616,185.377-158.022,185.685z M-139.44,184.57l-5.386,9.397c-0.173,0.293-0.556,0.53-0.847,0.53l-1.4,0.002
	c-0.291,0-0.386-0.239-0.208-0.53l1.197-2.153c0,0,0.097-0.125,0.01-0.826c-0.184-1.27-1.103-6.668-1.103-6.668
	c-0.066-0.293,0.113-0.533,0.405-0.533l1.21-0.002c0.372,0,0.67,0.253,0.737,0.547l0.603,3.745l0.225,0.002
	c0.188-0.344,2.124-3.771,2.124-3.771c0.185-0.29,0.559-0.532,0.851-0.532c0,0,1.3,0.004,1.621,0
	C-138.923,183.769-139.44,184.57-139.44,184.57z M-148.59,184.116c-0.51-0.296-1.315-0.444-2.417-0.444
	c-0.544,0-1.087,0.044-1.635,0.131c-0.405,0.064-0.444,0.076-0.693,0.132c-0.514,0.117-0.595,0.646-0.595,0.646l-0.166,0.701
	c-0.093,0.448,0.157,0.431,0.261,0.394c0.224-0.069,0.35-0.141,0.808-0.246c0.438-0.104,0.9-0.179,1.266-0.174
	c0.541,0,0.955,0.058,1.23,0.178c0.271,0.122,0.408,0.332,0.408,0.635l-0.024,0.197l-0.195,0.123
	c-0.766,0.05-1.32,0.122-1.993,0.224c-0.658,0.094-1.235,0.26-1.714,0.487c-0.515,0.233-0.897,0.547-1.164,0.946
	c-0.258,0.401-0.387,0.887-0.387,1.458c0,0.538,0.187,0.98,0.55,1.323c0.365,0.337,0.847,0.502,1.424,0.502
	c0.366-0.002,0.648-0.032,0.849-0.081l0.655-0.232l0.554-0.318l0.51-0.347l0.007,0.01l-0.052,0.224l-0.002,0.008v0.002
	c-0.056,0.272,0.104,0.496,0.361,0.521l0.005,0.007h0.023h1.037h0.194l0.018-0.009c0.27-0.032,0.523-0.256,0.582-0.521l0.985-4.4
	l0.051-0.358l0.024-0.337C-147.817,184.875-148.079,184.412-148.59,184.116z M-150.769,189.064l-0.211,0.288l-0.531,0.284
	c-0.25,0.102-0.487,0.157-0.707,0.157c-0.333,0-0.593-0.049-0.771-0.152l-0.26-0.521c0-0.285,0.063-0.508,0.197-0.681l0.573-0.402
	c0.246-0.086,0.545-0.157,0.892-0.207c0.309-0.039,0.919-0.112,0.999-0.114l0.094,0.169
	C-150.512,187.979-150.687,188.727-150.769,189.064z"/>
<path fill="#009CDE" d="M-130.562,182.929c-0.169-0.339-0.421-0.612-0.744-0.825c-0.328-0.212-0.719-0.358-1.175-0.444
	c-0.448-0.083-0.983-0.127-1.589-0.129l-2.827,0.002c-0.295,0.005-0.578,0.241-0.646,0.53l-1.901,8.54
	c-0.069,0.289,0.12,0.528,0.408,0.528l1.353-0.002c0.288,0.002,0.583-0.237,0.649-0.526l0.458-2.073
	c0.066-0.289,0.356-0.533,0.649-0.53h0.387c1.655,0,2.938-0.352,3.862-1.047c0.912-0.703,1.374-1.625,1.374-2.77
	C-130.305,183.683-130.39,183.261-130.562,182.929z M-133.477,185.72c-0.408,0.304-0.977,0.458-1.706,0.458h-0.336
	c-0.29,0.002-0.479-0.24-0.414-0.532l0.41-1.809c0.06-0.288,0.354-0.532,0.646-0.529l0.438-0.003
	c0.521,0.003,0.91,0.092,1.176,0.271c0.263,0.179,0.39,0.459,0.393,0.831C-132.866,184.975-133.071,185.409-133.477,185.72z
	 M-124.039,184.123c-0.512-0.297-1.318-0.446-2.416-0.446c-0.544,0-1.088,0.044-1.635,0.134c-0.405,0.062-0.446,0.074-0.695,0.13
	c-0.514,0.115-0.592,0.646-0.592,0.646l-0.166,0.7c-0.093,0.448,0.153,0.428,0.266,0.394c0.225-0.069,0.347-0.138,0.802-0.247
	c0.437-0.102,0.902-0.176,1.27-0.174c0.537,0,0.951,0.059,1.227,0.18c0.274,0.121,0.408,0.332,0.408,0.633l-0.021,0.196
	l-0.194,0.126c-0.773,0.048-1.329,0.12-1.995,0.222c-0.656,0.094-1.236,0.258-1.717,0.486c-0.512,0.234-0.9,0.549-1.163,0.947
	c-0.259,0.402-0.387,0.887-0.387,1.454c0,0.542,0.186,0.984,0.552,1.325c0.368,0.336,0.846,0.506,1.423,0.506
	c0.363-0.005,0.646-0.029,0.848-0.084l0.653-0.229l0.557-0.317l0.506-0.351l0.01,0.011l-0.046,0.225l-0.006,0.004l0.003,0.004
	c-0.061,0.272,0.099,0.497,0.359,0.521l0.002,0.005h0.024l0,0c0.17,0,0.759,0,1.039,0h0.192l0.019-0.007
	c0.268-0.033,0.521-0.257,0.575-0.523l0.989-4.396l0.051-0.361l0.029-0.338C-123.265,184.879-123.522,184.418-124.039,184.123z
	 M-126.213,189.07l-0.219,0.29l-0.527,0.281c-0.25,0.104-0.489,0.159-0.704,0.159c-0.343,0-0.598-0.05-0.77-0.153l-0.263-0.521
	c0-0.285,0.065-0.507,0.194-0.681c0.131-0.167,0.331-0.302,0.579-0.401c0.242-0.086,0.541-0.155,0.89-0.206
	c0.307-0.042,0.916-0.115,0.994-0.116l0.094,0.171C-125.958,187.987-126.133,188.73-126.213,189.07z M-118.969,182.13l0.003,0.002
	l-1.81,8.461l-0.065,0.103c-0.106,0.235-0.335,0.43-0.583,0.43h-1.258l-0.02-0.029c-0.24-0.037-0.397-0.236-0.34-0.495l-0.001-0.008
	l0.054-0.245l1.693-7.936l0.061-0.276l0.067-0.107c0.11-0.233,0.333-0.423,0.581-0.423h1.211
	C-119.084,181.604-118.908,181.841-118.969,182.13z"/>
</svg>
