<?xml version="1.0" encoding="utf-8"?>
<!-- Generator: Adobe Illustrator 16.0.0, SVG Export Plug-In . SVG Version: 6.00 Build 0)  -->
<!DOCTYPE svg PUBLIC "-//W3C//DTD SVG 1.1//EN" "http://www.w3.org/Graphics/SVG/1.1/DTD/svg11.dtd">
<svg version="1.1" id="Слой_1" xmlns="http://www.w3.org/2000/svg" xmlns:xlink="http://www.w3.org/1999/xlink" x="0px" y="0px"
	 width="52px" height="33px" viewBox="-164.5 181.5 52 33" enable-background="new -164.5 181.5 52 33" xml:space="preserve">
<path fill="#15E6CD" d="M-114.5,182.5c0.552,0,1,0.448,1,1v29c0,0.551-0.448,1-1,1h-48c-0.551,0-1-0.449-1-1v-29
	c0-0.552,0.449-1,1-1H-114.5 M-114.5,181.5h-48c-1.104,0-2,0.896-2,2v29c0,1.104,0.896,2,2,2h48c1.104,0,2-0.896,2-2v-29
	C-112.5,182.396-113.396,181.5-114.5,181.5L-114.5,181.5z M-152.705,192.725c-0.166-0.344-0.429-0.627-0.755-0.84
	c-0.34-0.215-0.741-0.365-1.2-0.455c-0.468-0.087-1.006-0.127-1.631-0.133l-2.885,0.002c-0.3,0.004-0.594,0.246-0.664,0.545
	l-1.941,8.722c-0.07,0.296,0.118,0.544,0.417,0.544h1.382c0.299,0,0.597-0.242,0.663-0.544l0.474-2.118
	c0.063-0.295,0.359-0.541,0.663-0.541h0.395c1.689-0.002,2.998-0.357,3.938-1.071c0.945-0.714,1.411-1.657,1.411-2.826
	C-152.44,193.497-152.522,193.067-152.705,192.725z M-155.685,195.574c-0.418,0.315-0.999,0.473-1.747,0.473h-0.337
	c-0.301,0-0.485-0.244-0.419-0.543l0.416-1.853c0.058-0.297,0.361-0.543,0.658-0.54l0.453-0.004c0.528,0,0.932,0.095,1.202,0.277
	c0.266,0.181,0.4,0.468,0.398,0.85C-155.055,194.813-155.269,195.26-155.685,195.574z M-136.692,194.436l-5.504,9.604
	c-0.177,0.301-0.568,0.543-0.866,0.543l-1.431,0.002c-0.297,0-0.395-0.244-0.214-0.543l1.224-2.2c0,0,0.099-0.128,0.011-0.844
	c-0.188-1.299-1.128-6.815-1.128-6.815c-0.068-0.3,0.116-0.545,0.414-0.545l1.238-0.002c0.379,0,0.684,0.258,0.752,0.559
	l0.616,3.828l0.229,0.002c0.192-0.352,2.17-3.854,2.17-3.854c0.189-0.297,0.571-0.545,0.87-0.545c0,0,1.329,0.005,1.656,0
	C-136.163,193.615-136.692,194.436-136.692,194.436z M-127.617,192.757c-0.173-0.346-0.431-0.625-0.76-0.843
	c-0.335-0.217-0.735-0.367-1.201-0.455c-0.458-0.084-1.004-0.129-1.624-0.131l-2.889,0.002c-0.302,0.006-0.591,0.246-0.66,0.542
	l-1.943,8.728c-0.07,0.297,0.123,0.541,0.417,0.541l1.383-0.002c0.294,0.002,0.596-0.242,0.664-0.539l0.469-2.119
	c0.068-0.295,0.364-0.544,0.663-0.541h0.396c1.691,0,3.002-0.359,3.946-1.07c0.933-0.719,1.404-1.66,1.404-2.83
	C-127.355,193.527-127.442,193.097-127.617,192.757z M-130.597,195.61c-0.417,0.31-0.998,0.467-1.743,0.467h-0.344
	c-0.297,0.003-0.489-0.245-0.423-0.543l0.419-1.849c0.061-0.295,0.362-0.544,0.66-0.541l0.449-0.003
	c0.532,0.003,0.93,0.094,1.202,0.276c0.27,0.183,0.398,0.469,0.402,0.85C-129.973,194.848-130.182,195.293-130.597,195.61z
	 M-146.043,193.971c-0.521-0.303-1.344-0.454-2.47-0.454c-0.557,0-1.111,0.045-1.671,0.134c-0.414,0.065-0.454,0.078-0.708,0.135
	c-0.525,0.119-0.608,0.66-0.608,0.66l-0.169,0.717c-0.095,0.458,0.16,0.439,0.267,0.402c0.229-0.071,0.357-0.145,0.826-0.252
	c0.448-0.105,0.919-0.184,1.294-0.179c0.552,0,0.975,0.061,1.256,0.183c0.278,0.125,0.417,0.339,0.417,0.648l-0.024,0.201
	l-0.199,0.127c-0.784,0.051-1.35,0.125-2.038,0.229c-0.672,0.096-1.262,0.266-1.751,0.496c-0.527,0.239-0.917,0.561-1.19,0.969
	c-0.264,0.41-0.396,0.906-0.396,1.49c0,0.55,0.191,1.002,0.563,1.353c0.374,0.345,0.867,0.513,1.456,0.513
	c0.374-0.002,0.663-0.032,0.868-0.083l0.669-0.237l0.566-0.325l0.521-0.354l0.007,0.01l-0.053,0.229l-0.003,0.008v0.002
	c-0.057,0.279,0.106,0.508,0.37,0.533l0.005,0.008h0.024h1.06h0.199l0.019-0.01c0.275-0.033,0.534-0.262,0.594-0.533l1.007-4.496
	l0.053-0.367l0.024-0.344C-145.254,194.746-145.521,194.273-146.043,193.971z M-148.271,199.028l-0.216,0.294l-0.543,0.29
	c-0.256,0.105-0.498,0.162-0.723,0.162c-0.34,0-0.606-0.05-0.787-0.156l-0.266-0.532c0-0.292,0.064-0.52,0.202-0.696l0.585-0.411
	c0.25-0.088,0.557-0.161,0.911-0.213c0.316-0.039,0.939-0.113,1.021-0.115l0.096,0.174
	C-148.009,197.92-148.186,198.684-148.271,199.028z M-120.95,193.978c-0.524-0.304-1.347-0.456-2.469-0.456
	c-0.556,0-1.112,0.045-1.671,0.137c-0.415,0.063-0.456,0.076-0.711,0.133c-0.525,0.117-0.605,0.66-0.605,0.66l-0.169,0.716
	c-0.094,0.458,0.156,0.437,0.271,0.402c0.23-0.071,0.355-0.141,0.82-0.253c0.447-0.104,0.921-0.18,1.298-0.178
	c0.549,0,0.972,0.061,1.254,0.184c0.28,0.124,0.417,0.34,0.417,0.646l-0.021,0.2l-0.198,0.13c-0.791,0.049-1.358,0.123-2.039,0.227
	c-0.67,0.096-1.263,0.264-1.754,0.497c-0.523,0.239-0.92,0.561-1.189,0.968c-0.265,0.411-0.395,0.906-0.395,1.486
	c0,0.554,0.19,1.006,0.564,1.354c0.376,0.344,0.865,0.517,1.455,0.517c0.372-0.005,0.66-0.03,0.867-0.085l0.668-0.233l0.569-0.325
	l0.518-0.358l0.01,0.011l-0.047,0.229l-0.006,0.004l0.003,0.004c-0.062,0.279,0.101,0.509,0.368,0.534l0.002,0.005h0.024l0,0
	c0.174,0,0.775,0,1.062,0h0.196l0.02-0.007c0.273-0.034,0.532-0.263,0.588-0.536l1.011-4.492l0.052-0.369l0.03-0.345
	C-120.16,194.75-120.423,194.279-120.95,193.978z M-123.173,199.034l-0.223,0.296l-0.539,0.289c-0.256,0.105-0.5,0.162-0.72,0.162
	c-0.35,0-0.611-0.051-0.786-0.156l-0.269-0.533c0-0.29,0.067-0.518,0.198-0.695c0.134-0.171,0.338-0.309,0.592-0.41
	c0.248-0.088,0.553-0.158,0.91-0.211c0.313-0.042,0.936-0.117,1.016-0.118l0.097,0.175
	C-122.912,197.928-123.091,198.688-123.173,199.034z M-115.769,191.941l0.003,0.002l-1.85,8.646l-0.067,0.104
	c-0.108,0.242-0.343,0.44-0.595,0.44h-1.285l-0.021-0.03c-0.246-0.038-0.406-0.241-0.347-0.507l-0.002-0.008l0.055-0.25l1.73-8.111
	l0.062-0.281l0.069-0.11c0.112-0.239,0.34-0.433,0.593-0.433h1.238C-115.887,191.402-115.707,191.645-115.769,191.941z"/>
</svg>
