<?xml version="1.0" encoding="utf-8"?>
<!-- Generator: Adobe Illustrator 16.0.0, SVG Export Plug-In . SVG Version: 6.00 Build 0)  -->
<!DOCTYPE svg PUBLIC "-//W3C//DTD SVG 1.1//EN" "http://www.w3.org/Graphics/SVG/1.1/DTD/svg11.dtd">
<svg version="1.1" id="Слой_1" xmlns="http://www.w3.org/2000/svg" xmlns:xlink="http://www.w3.org/1999/xlink" x="0px" y="0px"
	 width="22px" height="17px" viewBox="-164.5 181.5 22 17" enable-background="new -164.5 181.5 22 17" xml:space="preserve">
<path fill="#BBCAC8" d="M-153.495,184.661c2.813,0,5.194,1.283,6.696,2.359c1.78,1.275,2.695,2.509,2.933,2.979
	c-0.238,0.471-1.153,1.704-2.933,2.979c-1.502,1.076-3.883,2.359-6.696,2.359s-5.193-1.283-6.695-2.359
	c-1.78-1.275-2.695-2.509-2.933-2.979c0.238-0.471,1.153-1.704,2.933-2.979C-158.688,185.944-156.308,184.661-153.495,184.661
	 M-153.495,183.326c-6.078,0-11.005,5.339-11.005,6.674s4.927,6.674,11.005,6.674c6.078,0,11.005-5.339,11.005-6.674
	S-147.417,183.326-153.495,183.326L-153.495,183.326z M-153.495,185.996c-2.21,0-4.002,1.793-4.002,4.004s1.792,4.004,4.002,4.004
	c2.21,0,4.002-1.793,4.002-4.004S-151.285,185.996-153.495,185.996z M-154.572,190c-0.935,0-1.693-0.759-1.693-1.694
	s0.758-1.694,1.693-1.694s1.693,0.759,1.693,1.694S-153.637,190-154.572,190z"/>
</svg>
