<?xml version="1.0" encoding="utf-8"?>
<!-- Generator: Adobe Illustrator 16.0.0, SVG Export Plug-In . SVG Version: 6.00 Build 0)  -->
<!DOCTYPE svg PUBLIC "-//W3C//DTD SVG 1.1//EN" "http://www.w3.org/Graphics/SVG/1.1/DTD/svg11.dtd">
<svg version="1.1" id="Слой_1" xmlns="http://www.w3.org/2000/svg" xmlns:xlink="http://www.w3.org/1999/xlink" x="0px" y="0px"
	 width="22px" height="17px" viewBox="-164.5 181.5 22 17" enable-background="new -164.5 181.5 22 17" xml:space="preserve">
<path fill-rule="evenodd" clip-rule="evenodd" fill="#BBCAC8" d="M-153.495,194.004c-2.21,0-4.002-1.793-4.002-4.004
	c0-0.356,0.062-0.695,0.149-1.024l4.879,4.879C-152.798,193.942-153.138,194.004-153.495,194.004z M-153.495,183.326
	c-1.16,0-2.276,0.196-3.326,0.521l1.088,1.088c0.708-0.167,1.453-0.273,2.237-0.273c2.813,0,5.194,1.283,6.696,2.359
	c1.78,1.275,2.695,2.509,2.933,2.979c-0.238,0.471-1.153,1.704-2.933,2.979c-0.165,0.118-0.344,0.238-0.529,0.359l0.961,0.961
	c2.37-1.605,3.877-3.563,3.877-4.3C-142.49,188.665-147.417,183.326-153.495,183.326z M-153.009,187.658l3.367,3.367
	c0.087-0.329,0.149-0.669,0.149-1.025c0-2.211-1.792-4.004-4.002-4.004c-0.357,0-0.697,0.062-1.026,0.149l0.595,0.595
	C-153.512,186.912-153.18,187.243-153.009,187.658z M-153.495,195.339c-2.813,0-5.193-1.283-6.695-2.359
	c-1.78-1.275-2.695-2.509-2.933-2.979c0.238-0.471,1.153-1.704,2.933-2.979c0.165-0.118,0.344-0.238,0.528-0.359l-0.961-0.961
	c-2.369,1.606-3.876,3.563-3.876,4.3c0,1.335,4.927,6.674,11.005,6.674c1.16,0,2.276-0.196,3.326-0.52l-1.089-1.089
	C-151.965,195.232-152.711,195.339-153.495,195.339z M-161.925,182.984l15.446,15.445l1.414-1.414l-15.445-15.445L-161.925,182.984z
	"/>
</svg>
