<svg xmlns="http://www.w3.org/2000/svg" xmlns:xlink="http://www.w3.org/1999/xlink" width="85" height="41" viewBox="0 0 85 41"><defs><path id="ccq6a" d="M947.466 1086.096v-40.542h84.462v40.542z"/><path id="ccq6c" d="M981.943 1074.033l2.65-15.542h4.228l-2.65 15.542z"/><path id="ccq6d" d="M1001.534 1058.878c-.834-.327-2.144-.655-3.781-.655-4.198 0-7.146 2.114-7.146 5.121-.03 2.233 2.114 3.484 3.722 4.228 1.637.774 2.203 1.25 2.203 1.935 0 1.042-1.31 1.519-2.53 1.519-1.698 0-2.59-.239-3.99-.804l-.596-.268-.595 3.483c.982.447 2.828.804 4.734.834 4.466 0 7.354-2.084 7.384-5.3.03-1.756-1.102-3.126-3.543-4.227-1.49-.715-2.382-1.191-2.382-1.936 0-.655.774-1.34 2.411-1.34 1.4-.03 2.382.268 3.156.596l.387.179.566-3.365"/><path id="ccq6e" d="M1007.19 1068.525c.358-.894 1.698-4.347 1.698-4.347-.03.03.357-.893.566-1.489l.297 1.34s.804 3.722.983 4.496zm5.211-10.004h-3.275c-1.012 0-1.786.268-2.233 1.28l-6.282 14.232h4.436s.715-1.906.893-2.323h5.42c.118.536.505 2.323.505 2.323h3.93l-3.394-15.512"/><path id="ccq6f" d="M978.4 1058.491l-4.168 10.6-.446-2.144c-.745-2.471-3.156-5.18-5.836-6.52l3.781 13.606h4.496l6.67-15.542H978.4"/><path id="ccq6g" d="M970.391 1058.491h-6.818l-.06.328c5.33 1.28 8.843 4.406 10.302 8.128l-1.488-7.146c-.268-.982-1.013-1.28-1.936-1.31"/><clipPath id="ccq6b"><use fill="#fff" xlink:href="#ccq6a"/></clipPath></defs><g><g transform="translate(-947 -1045)"><g><use fill="#fff" xlink:href="#ccq6a"/><use fill="#fff" fill-opacity="0" stroke="#bce0fd" stroke-miterlimit="50" stroke-width="2" clip-path="url(&quot;#ccq6b&quot;)" xlink:href="#ccq6a"/></g><g><g><use fill="#0e0e0e" xlink:href="#ccq6c"/></g><g><use fill="#0e0e0e" xlink:href="#ccq6d"/></g><g><use fill="#0e0e0e" xlink:href="#ccq6e"/></g><g><use fill="#0e0e0e" xlink:href="#ccq6f"/></g><g><use fill="#0e0e0e" xlink:href="#ccq6g"/></g></g></g></g></svg>