<?xml version="1.0" encoding="utf-8"?>
<!-- Generator: Adobe Illustrator 21.1.0, SVG Export Plug-In . SVG Version: 6.00 Build 0)  -->
<svg version="1.1" id="Слой_1" xmlns="http://www.w3.org/2000/svg" xmlns:xlink="http://www.w3.org/1999/xlink" x="0px" y="0px"
	 viewBox="0 0 74 35" style="enable-background:new 0 0 74 35;" xml:space="preserve">
<style type="text/css">
	.st0{fill:#01211D;}
	.st1{fill:#09CCB4;}
</style>
<g>
	<title>Монтажная область 1</title>
	<path class="st0" d="M74,22H0v1h74V22z M3.2,31.3c0-3.7,0-2.3,0-4.3c0-0.4,0-0.5,0.1-0.5s0.3,0.2,0.4,0.3s1.7,1.8,3.2,3.5
		c1,1.1,2.1,2.3,2.4,2.7l-0.1-5.2c0-0.7-0.1-0.9-0.4-1c-0.1,0-0.3,0-0.4,0c-0.1,0-0.1,0-0.1-0.1s0.1-0.1,0.2-0.1c0.5,0,0.9,0,1.1,0
		s0.4,0,0.9,0c0.1,0,0.2,0,0.2,0.1s0,0.1-0.1,0.1h-0.3c-0.3,0.1-0.4,0.2-0.4,0.9v6c0,0.7,0,0.7-0.1,0.7s-0.2-0.1-0.7-0.7
		c-0.1-0.1-1.6-1.6-2.7-2.8S4,28.5,3.7,28.1l0.1,4.9c0,0.8,0.1,1.1,0.4,1.2c0.2,0,0.3,0.1,0.5,0.1c0.1,0,0.1,0,0.1,0.1
		s-0.1,0.1-0.2,0.1c-0.6,0-1,0-1.1,0s-0.5,0-1,0c-0.1,0-0.2,0-0.2-0.1s0-0.1,0.1-0.1c0.1,0,0.3,0,0.4-0.1c0.3-0.1,0.3-0.4,0.3-1.3
		L3.2,31.3L3.2,31.3z M13.9,31.3c-0.1,0-0.1,0-0.1,0.1l-0.6,1.8c-0.1,0.2-0.1,0.4-0.1,0.7c0,0.2,0.2,0.3,0.4,0.3h0.1
		c0.1,0,0.1,0,0.1,0.1s-0.1,0.1-0.2,0.1h-0.8c-0.1,0-0.7,0-1.1,0c-0.1,0-0.2,0-0.2-0.1s0.1-0.1,0.1-0.1h0.2c0.5-0.1,0.7-0.4,0.9-1
		l2.3-6.3c0.1-0.3,0.2-0.4,0.2-0.4s0.1,0,0.2,0.4s1.8,4.6,2.4,6.1c0.4,0.9,0.7,1.1,0.9,1.1c0.1,0,0.3,0.1,0.4,0.1
		c0.1,0,0.1,0,0.1,0.1s-0.1,0.1-0.2,0.1s-0.9,0-1.6,0c-0.2,0-0.3,0-0.3-0.1s0-0.1,0.1-0.1s0.1-0.1,0.1-0.3l-1-2.5c0,0,0-0.1-0.1-0.1
		C16.1,31.3,13.9,31.3,13.9,31.3z M16,31C16,31,16,31,16,31l-1-2.8c-0.1-0.2-0.1-0.2-0.1,0L14,30.9c0,0.1,0,0.1,0,0.1H16z
		 M20.9,29.6c0-1.6,0-1.9,0-2.2s-0.1-0.5-0.4-0.6c-0.1,0-0.2,0-0.3,0c0,0-0.1,0-0.1-0.1s0-0.1,0.2-0.1c0.3,0,1,0,1,0h1
		c0.1,0,0.2,0,0.2,0.1s0,0.1-0.1,0.1h-0.3c-0.3,0-0.4,0.2-0.4,0.6s0,0.6,0,2.2v1.8c0,1,0,1.8,0,2.2s0.1,0.5,0.4,0.6h0.4
		c0.1,0,0.1,0,0.1,0.1s0,0.1-0.1,0.1c-0.6,0-1.2,0-1.3,0h-1c-0.1,0-0.2,0-0.2-0.1s0-0.1,0.1-0.1h0.3c0.2,0,0.3-0.3,0.3-0.6
		s0-1.2,0-2.2V29.6z M26.5,31.4c0,1.5,0,2.2,0.2,2.3s0.4,0.2,1.2,0.2c0.5,0,1,0,1.2-0.3c0.1-0.2,0.2-0.4,0.3-0.6
		c0-0.1,0-0.1,0.1-0.1s0.1,0,0.1,0.2c0,0.3-0.1,0.7-0.1,1c-0.1,0.2-0.1,0.3-0.6,0.3c-0.9,0-1.7-0.1-2.7-0.1c-0.3,0-0.6,0-1,0
		c-0.1,0-0.2,0-0.2-0.1s0-0.1,0.1-0.1c0.1,0,0.2,0,0.3,0c0.2,0,0.3-0.3,0.3-0.6s0-1.2,0-2.2v-1.8c0-1.6,0-1.9,0-2.2
		s-0.1-0.5-0.4-0.6c-0.1,0-0.2,0-0.4,0c0,0-0.1,0-0.1-0.1s0-0.1,0.2-0.1c0.5,0,1.1,0,1.1,0h1.1c0.1,0,0.2,0,0.2,0.1s0,0.1-0.1,0.1
		h-0.3c-0.3,0-0.4,0.2-0.4,0.6s0,0.6,0,2.2L26.5,31.4L26.5,31.4z M31.2,34.2c-0.1-0.1-0.1-0.1-0.1-0.4c0-0.5,0-0.9,0-1.1
		s0-0.2,0.1-0.2s0.1,0,0.1,0.1c0,0.1,0,0.3,0,0.4c0.2,0.7,0.8,1.1,1.5,1c0.7,0.1,1.4-0.5,1.5-1.3c0,0,0-0.1,0-0.1
		c0-0.7-0.3-1.1-1.2-1.8l-0.5-0.4c-1.1-0.9-1.3-1.5-1.3-2.2c0-1,0.9-1.8,1.9-1.8c0.1,0,0.1,0,0.2,0c0.3,0,0.6,0,1,0.1
		c0.1,0,0.2,0,0.4,0c0.1,0,0.1,0,0.1,0.1s0,0.4,0,1.1c0,0.2,0,0.2-0.1,0.2s-0.1,0-0.1-0.1c0-0.2-0.1-0.3-0.1-0.5
		c-0.1-0.1-0.3-0.5-1.3-0.5c-0.6-0.1-1.2,0.4-1.3,1c0,0.1,0,0.2,0,0.2c0,0.6,0.3,1,1.2,1.7l0.3,0.2c1.2,0.9,1.5,1.6,1.5,2.4
		c0,0.7-0.3,1.3-0.9,1.7c-0.5,0.3-1,0.4-1.6,0.4C32.1,34.5,31.7,34.4,31.2,34.2z M41.2,34.2c-0.1-0.1-0.2-0.1-0.2-0.4
		c0-0.5,0-0.9,0-1.1s0-0.2,0.1-0.2s0.1,0,0.1,0.1c0,0.1,0,0.3,0,0.4c0.2,0.7,0.8,1.1,1.5,1c0.7,0.1,1.4-0.5,1.5-1.3c0,0,0-0.1,0-0.1
		c0-0.7-0.3-1.1-1.2-1.8l-0.5-0.4c-1.1-0.9-1.3-1.5-1.3-2.2c0-1,0.9-1.8,1.9-1.8c0.1,0,0.1,0,0.2,0c0.3,0,0.6,0,1,0.1
		c0.1,0,0.2,0,0.4,0c0.1,0,0.1,0,0.1,0.1s0,0.4,0,1.1c0,0.2,0,0.2-0.1,0.2s-0.1,0-0.1-0.1c0-0.2-0.1-0.3-0.1-0.5
		c-0.1-0.1-0.3-0.5-1.3-0.5c-0.6-0.1-1.2,0.4-1.3,1c0,0.1,0,0.2,0,0.2c0,0.6,0.3,1,1.2,1.7l0.3,0.2c1.2,0.9,1.5,1.6,1.5,2.4
		c0,0.7-0.3,1.3-0.9,1.7c-0.5,0.3-1,0.4-1.5,0.4C42.1,34.5,41.7,34.4,41.2,34.2z M53.2,29.9C53.2,29.9,53.3,29.9,53.2,29.9l0.1-0.3
		c0-1.6,0-1.9,0-2.2s-0.1-0.5-0.4-0.6c-0.1,0-0.2,0-0.3,0c0,0-0.1,0-0.1-0.1s0-0.1,0.2-0.1c0.5,0,1.1,0,1.2,0h1c0.1,0,0.2,0,0.2,0.1
		s0,0.1-0.1,0.1h-0.3c-0.3,0-0.4,0.2-0.4,0.6s0,0.6,0,2.2v1.8c0,1,0,1.8,0,2.2s0.1,0.5,0.4,0.6h0.5c0.1,0,0.1,0,0.1,0.1
		s0,0.1-0.2,0.1c-0.6,0-1.2,0-1.3,0h-1c-0.1,0-0.2,0-0.2-0.1s0-0.1,0.1-0.1c0.1,0,0.2,0,0.3,0c0.2,0,0.3-0.3,0.3-0.6s0-1.2,0-2.2
		v-1.1c0,0,0-0.1-0.1-0.1h-4.4c0,0-0.1,0-0.1,0.1v1.1c0,1,0,1.8,0,2.2s0.1,0.5,0.4,0.6h0.5c0.1,0,0.1,0,0.1,0.1s0,0.1-0.2,0.1
		c-0.6,0-1.2,0-1.3,0h-1c-0.1,0-0.2,0-0.2-0.1s0-0.1,0.1-0.1c0.1,0,0.2,0,0.3,0c0.2,0,0.3-0.3,0.3-0.6s0.1-1.2,0.1-2.2v-1.8
		c0-1.6,0-1.9,0-2.2s-0.1-0.5-0.4-0.6c-0.1,0-0.2,0-0.3,0c0,0-0.1,0-0.1-0.1s0-0.1,0.2-0.1c0.5,0,1.1,0,1.2,0h1c0.1,0,0.2,0,0.2,0.1
		s0,0.1-0.1,0.1h-0.3c-0.3,0-0.4,0.2-0.4,0.6s0,0.6,0,2.2v0.2c0,0.1,0,0.1,0.1,0.1L53.2,29.9z M56.9,30.5c0-2.2,1.8-4,4-4
		c2-0.2,3.8,1.4,4,3.4c0,0.1,0,0.3,0,0.4c0.1,2.2-1.6,4.1-3.8,4.2c-0.1,0-0.2,0-0.3,0c-2.1,0.1-3.9-1.6-4-3.7
		C56.8,30.7,56.8,30.6,56.9,30.5L56.9,30.5z M63.9,30.6c0-2.5-1.5-3.8-3.1-3.8s-3,1.1-3,3.4s1.4,3.9,3.3,3.9
		C62,34.1,63.9,33.6,63.9,30.6L63.9,30.6z M67.6,29.6c0-1.6,0-1.9,0-2.2s-0.1-0.5-0.4-0.6c-0.1,0-0.2,0-0.3,0c0,0-0.1,0-0.1-0.1
		s0-0.1,0.2-0.1c0.5,0,1.1,0,1.2,0s0.8,0,1.3,0c0.7-0.1,1.4,0.1,1.9,0.6c0.3,0.4,0.5,0.8,0.5,1.3c0,1.3-1.1,2.3-2.4,2.3
		c0,0-0.1,0-0.1,0H69c-0.1,0-0.1,0-0.1-0.1s0.1-0.1,0.3-0.1c0.9,0,1.7-0.7,1.8-1.6c0,0,0-0.1,0-0.1c0-0.6-0.2-1.1-0.6-1.5
		c-0.4-0.4-0.9-0.6-1.4-0.5c-0.1,0-0.3,0-0.4,0.1c-0.1,0-0.1,0.1-0.1,0.2v4.2c0,1,0,1.8,0.1,2.2s0.1,0.5,0.4,0.6h0.5
		c0.1,0,0.1,0,0.1,0.1s-0.1,0.1-0.2,0.1c-0.6,0-1.2,0-1.3,0h-1c-0.1,0-0.2,0-0.2-0.1s0-0.1,0.1-0.1c0.1,0,0.2,0,0.3,0
		c0.2,0,0.3-0.3,0.3-0.6s0.1-1.2,0.1-2.2L67.6,29.6L67.6,29.6z"/>
	<path class="st1" d="M5,0.1c-0.3,0-0.6,0.3-0.6,0.6c0,0.3,0.2,0.5,0.5,0.6c1.4,0.3,2.3,1.4,2.9,3.4C4.7,7.9,2.8,12,2.5,16.4
		C2.5,18.8,3.6,20,5,20c2.8,0,4.6-4.9,4.6-10c0-1.6-0.1-3.2-0.4-4.8c0.8-0.9,1.9-1.4,3.1-1.4c0.8,0,1.6,0.3,2.2,0.9
		c0.6,0.7,1,1.5,1.2,2.4c-2.2,2.9-3.8,7.3-3.8,10c-0.1,0.9,0.1,1.7,0.6,2.4c0.3,0.3,0.7,0.4,1.1,0.4c2.4,0,3.7-4.7,3.7-9.1
		c0-1.2-0.1-2.4-0.4-3.6c0.4-0.6,2.2-3.1,4.2-3.1c2.4,0,3,3.1,3,5.6c0,3.4-1,7.2-2.3,9.1c-0.1,0.1-0.1,0.2-0.1,0.3
		c0,0.3,0.2,0.6,0.5,0.6c0,0,0,0,0,0c0.2,0,0.4-0.1,0.5-0.2c1.4-2.1,2.5-6.2,2.5-9.8c0-2-0.3-4.2-1.7-5.6c-0.7-0.7-1.6-1-2.5-1
		c-1.8,0-3.4,1.3-4.7,2.8c-0.5-2-2.2-3.4-4.2-3.4C11,2.5,9.8,3,8.8,3.8C8.2,1.9,7.1,0.5,5.2,0.1H5z M8.3,9.9c0,4.7-1.5,8.9-3.3,8.9
		c-1.3,0-1.3-2.1-1.3-2.4c0-3,1.9-7.6,4.4-10.5C8.2,7.3,8.3,8.6,8.3,9.9L8.3,9.9z M16.1,11.1c0,4.3-1.3,7.7-2.5,7.7
		c-0.5,0-0.6-1.3-0.6-1.7c0-2.2,1.2-5.7,2.9-8.6C16.1,9.3,16.2,10.2,16.1,11.1L16.1,11.1z M31.6,10.2c-3,0-5,4-5,6.8
		c0,2,1.1,2.9,2.2,2.9c1.4,0,2.6-1,2.9-2.3c0-0.3-0.2-0.6-0.5-0.6c0,0,0,0-0.1,0c-0.2,0-0.4,0.1-0.5,0.3c-0.2,0.8-0.8,1.3-1.6,1.4
		c-0.7,0-1.2-0.7-1.2-1.7c0-2.5,1.5-5.6,3.6-5.6c0.7,0,1.4,0.5,1.4,1.8c0,1-0.2,2-0.3,3c-0.1,0.8-0.2,1.5-0.3,2.3
		c0,0.5,0.2,1.3,0.8,1.3c0.3,0,0.6-0.2,0.6-0.6c0-0.1,0-0.2-0.1-0.3c0-0.1-0.1-0.2,0-0.3c0-0.7,0.1-1.5,0.3-2.2
		c0.2-1.1,0.3-2.2,0.3-3.3C34.1,11.2,33.2,10.1,31.6,10.2L31.6,10.2z M36.9,15.7c-1,0-1.9,0.9-1.9,1.9c0,0,0,0.1,0,0.1
		c0,1.4,1.4,2.3,3,2.3c2.1,0,3.3-1.3,3.3-2.9c0-1.4-0.9-2.2-2.2-3c-1.1-0.7-1.3-1-1.3-1.5c0-0.7,0.5-1.2,1.2-1.3c0.1,0,0.1,0,0.2,0
		c0.5,0,1,0.4,1.2,0.9c0.1,0.2,0.3,0.3,0.5,0.3c0.3,0,0.6-0.3,0.6-0.6c0,0,0,0,0,0c-0.2-1-1.2-1.7-2.3-1.6c-1.3-0.1-2.5,0.8-2.6,2.2
		c0,0,0,0.1,0,0.1c0.1,1.2,0.9,2.2,2,2.6c1.2,0.7,1.5,1.4,1.5,2.1c0,1-0.9,1.8-1.9,1.8c0,0-0.1,0-0.1,0c-1,0-1.8-0.7-1.8-1.3
		c0-0.4,0.1-0.8,0.7-0.8c0.1,0,0.3,0,0.4,0.1c0.3,0,0.5-0.2,0.5-0.4c0,0,0-0.1,0-0.1C37.9,15.9,37.4,15.7,36.9,15.7L36.9,15.7z
		 M43.6,19.7c0.3,0,0.6-0.2,0.6-0.5c0,0,0-0.1,0-0.1c-0.3-3.1,2-7.7,3.8-7.7c0.7,0,1,0.7,1,2.8c0,1.5-0.2,3-0.6,4.4c0,0,0,0.1,0,0.2
		c0,0.3,0.3,0.6,0.6,0.6c0.3,0,0.5-0.2,0.6-0.5c0.4-1.5,0.6-3.1,0.7-4.7c0-1.2,0-4-2.2-4c-1.5,0-3.1,1.7-4,4.4
		c0.2-1.9,0.6-3.7,1-5.5c2.7-0.7,5.5-2.7,5.5-4.9c0.1-0.9-0.6-1.8-1.6-1.8c-0.1,0-0.2,0-0.3,0c-2.1,0-3.8,3.1-4.6,5.8
		c-0.3,0.1-0.7,0.1-1,0.1h-0.5c-0.3,0-0.5,0.2-0.6,0.5c0,0,0,0,0,0.1c0,0.6,0.6,0.6,1.1,0.6c0.2,0,0.5,0,0.7,0
		c-0.5,2.5-0.9,5.1-0.9,7.6c0,0.7,0.1,1.5,0.2,2.2C43.2,19.5,43.4,19.7,43.6,19.7L43.6,19.7z M48.8,3.5c0.3,0,0.6,0.2,0.7,0.5
		c0,0.1,0,0.1,0,0.2c0,1.3-1.8,2.9-4,3.7C46.3,5.3,47.8,3.5,48.8,3.5z M56.6,10.2c-3,0-5,4-5,6.8c0,2,1.1,2.9,2.2,2.9
		c1.4,0,2.6-1,2.9-2.3c0-0.3-0.2-0.6-0.5-0.6c0,0,0,0-0.1,0c-0.2,0-0.4,0.1-0.5,0.3c-0.2,0.8-0.8,1.3-1.6,1.4
		c-0.7,0-1.2-0.7-1.2-1.7c0-2.5,1.5-5.6,3.6-5.6c0.7,0,1.4,0.5,1.4,1.8c0,1-0.2,2-0.3,3c-0.1,0.8-0.2,1.5-0.3,2.3
		c0,0.5,0.2,1.3,0.8,1.3c0.3,0,0.6-0.2,0.6-0.6c0-0.1,0-0.2-0.1-0.3c0-0.1-0.1-0.2,0-0.3c0-0.7,0.1-1.5,0.3-2.2
		c0.2-1.1,0.3-2.2,0.3-3.3C59.1,11.2,58.1,10.1,56.6,10.2L56.6,10.2z M64.3,8.4c0-0.2-0.1-0.3-0.2-0.5c-0.9-0.7-1.8-1.4-2.5-2
		c-0.1-0.1-0.4-0.3-0.7-0.5c-0.1,0-0.2-0.1-0.3-0.1c-0.2,0-0.5,0.2-0.5,0.4c0,0,0,0,0,0.1c0,0.3,0.1,0.5,0.5,0.8
		c0.7,0.5,2,1.6,2.7,2.1c0.1,0.1,0.3,0.2,0.5,0.2C64.1,8.9,64.3,8.7,64.3,8.4L64.3,8.4z M67.2,15.7c-1,0-1.9,0.9-1.9,1.9
		c0,0,0,0.1,0,0.1c0,1.4,1.4,2.3,3,2.3c2.1,0,3.3-1.3,3.3-2.9c0-1.4-0.9-2.2-2.2-3c-1.1-0.7-1.3-1-1.3-1.5c0-0.7,0.5-1.2,1.2-1.3
		c0.1,0,0.1,0,0.2,0c0.5,0,1,0.4,1.2,0.9c0.1,0.2,0.2,0.3,0.4,0.3c0.3,0,0.6-0.3,0.6-0.6c0,0,0,0,0,0c-0.2-1-1.2-1.7-2.3-1.6
		c-1.3-0.1-2.5,0.8-2.6,2.2c0,0,0,0.1,0,0.1c0.1,1.2,0.9,2.2,2,2.6c1.2,0.7,1.6,1.4,1.6,2.1c0,1-0.9,1.8-1.9,1.8c0,0-0.1,0-0.1,0
		c-1,0-1.8-0.7-1.8-1.3c0-0.4,0.1-0.8,0.7-0.8c0.1,0,0.3,0,0.4,0.1c0.3,0,0.5-0.2,0.5-0.4c0,0,0-0.1,0-0.1
		C68.2,15.9,67.7,15.7,67.2,15.7L67.2,15.7z"/>
</g>
</svg>
